<?xml version="1.0" encoding="UTF-8" standalone="no"?>
<!-- Created with Inkscape (http://www.inkscape.org/) -->

<svg
   xmlns:dc="http://purl.org/dc/elements/1.1/"
   xmlns:cc="http://creativecommons.org/ns#"
   xmlns:rdf="http://www.w3.org/1999/02/22-rdf-syntax-ns#"
   xmlns:svg="http://www.w3.org/2000/svg"
   xmlns="http://www.w3.org/2000/svg"
   xmlns:sodipodi="http://sodipodi.sourceforge.net/DTD/sodipodi-0.dtd"
   xmlns:inkscape="http://www.inkscape.org/namespaces/inkscape"
   version="1.1"
   id="svg4607"
   width="1525"
   height="1525"
   viewBox="0 0 1525 1525"
   sodipodi:docname="JupyterPiDAQ-logo.svg"
   inkscape:version="0.92.5 (2060ec1f9f, 2020-04-08)">
  <metadata
     id="metadata4613">
    <rdf:RDF>
      <cc:Work
         rdf:about="">
        <dc:format>image/svg+xml</dc:format>
        <dc:type
           rdf:resource="http://purl.org/dc/dcmitype/StillImage" />
        <dc:title />
      </cc:Work>
    </rdf:RDF>
  </metadata>
  <defs
     id="defs4611" />
  <sodipodi:namedview
     pagecolor="#ffffff"
     bordercolor="#666666"
     borderopacity="1"
     objecttolerance="10"
     gridtolerance="10"
     guidetolerance="10"
     inkscape:pageopacity="0"
     inkscape:pageshadow="2"
     inkscape:window-width="1920"
     inkscape:window-height="1016"
     id="namedview4609"
     showgrid="false"
     inkscape:zoom="0.36"
     inkscape:cx="-53.019248"
     inkscape:cy="881.05616"
     inkscape:window-x="0"
     inkscape:window-y="27"
     inkscape:window-maximized="1"
     inkscape:current-layer="svg4607"
     inkscape:snap-text-baseline="false" />
  <rect
     style="opacity:0.97000002;fill:#4d4d4d;fill-opacity:1;stroke:none;stroke-width:3.03440475;stroke-miterlimit:4;stroke-dasharray:none;stroke-dashoffset:6.99212599;stroke-opacity:1"
     id="rect5976-3"
     width="657.61163"
     height="19.931446"
     x="775.82147"
     y="34.593384"
     transform="matrix(0.99653945,0.08312113,0.11395245,-0.9934862,0,0)" />
  <path
     style="opacity:0.97000002;fill:#4d4d4d;fill-opacity:1;stroke:none;stroke-width:3.45954776;stroke-miterlimit:4;stroke-dasharray:none;stroke-dashoffset:6.99212599;stroke-opacity:1"
     id="path6027"
     sodipodi:type="arc"
     sodipodi:cx="757.85822"
     sodipodi:cy="66.158737"
     sodipodi:rx="92.363976"
     sodipodi:ry="56.266499"
     sodipodi:start="0"
     sodipodi:end="6.2702935"
     d="M 850.22219,66.158737 A 92.363976,56.266499 0 0 1 758.1559,122.42494 92.363976,56.266499 0 0 1 665.49616,66.521423 92.363976,56.266499 0 0 1 756.96518,9.8948687 92.363976,56.266499 0 0 1 850.21452,65.43338 l -92.3563,0.725357 z" />
  <ellipse
     style="fill:none;fill-opacity:1;stroke:#ff6600;stroke-width:11.96568966;stroke-miterlimit:4;stroke-dasharray:none;stroke-dashoffset:6.99212599;stroke-opacity:1"
     id="path5871"
     cx="1004.777"
     cy="26.292788"
     rx="546.16779"
     ry="554.35693"
     transform="rotate(40.416541)" />
  <ellipse
     style="fill:none;fill-opacity:1;stroke:#ff6600;stroke-width:13.44423771;stroke-miterlimit:4;stroke-dasharray:none;stroke-dashoffset:6.99212599;stroke-opacity:1"
     id="path5892"
     cx="636.38727"
     cy="934.22211"
     rx="7.2354574"
     ry="3.6567018"
     transform="matrix(0.99292339,-0.11875663,0.18904001,0.98196939,0,0)"
     inkscape:transform-center-x="12.342839"
     inkscape:transform-center-y="-6.0041022" />
  <path
     style="opacity:0.97000002;fill:#ff6600;fill-opacity:1;stroke:#ff6600;stroke-width:3.85511804;stroke-miterlimit:4;stroke-dasharray:none;stroke-dashoffset:6.99212599;stroke-opacity:1"
     id="path5919"
     d="m 809.53927,871.19416 c 1.53753,0.16935 3.09214,0.0239 4.61802,-0.19018 0.94822,-0.1731 1.89041,-0.43524 2.79284,-0.77592 0.70658,-0.16737 1.36788,-0.45972 2.0439,-0.71556 0.63046,-0.30514 1.30369,-0.50875 1.92195,-0.84192 0.65388,-0.1814 1.21447,-0.5772 1.87295,-0.73299 0.33582,-0.007 0.55533,-0.30998 0.82619,-0.42341 0.12009,-0.0503 0.2611,0.002 0.3904,-0.0136 0.63357,-0.0902 1.24434,-0.4035 1.85929,-0.61042 0.74921,-0.28703 1.40926,-0.74519 2.12251,-1.10773 0.64764,-0.37041 1.34215,-0.62392 1.98133,-1.01112 0.68723,-0.40807 1.38511,-0.7793 2.04188,-1.24109 0.63675,-0.30155 1.23568,-0.65042 1.79507,-1.0778 0.68283,-0.30078 1.27005,-0.74683 1.86001,-1.19361 0.7524,-0.39678 1.4035,-0.93874 2.07105,-1.45728 0.64431,-0.39193 1.2827,-0.7895 1.85391,-1.28394 0.50825,-0.54177 1.17376,-0.86994 1.77556,-1.29192 0.66744,-0.50895 1.18725,-1.17117 1.86286,-1.66867 0.6976,-0.44676 1.32387,-0.98067 1.91504,-1.55767 0.52066,-0.53399 1.00979,-1.09712 1.48948,-1.66783 0.5721,-0.66102 1.13732,-1.32786 1.7041,-1.99342 0.62551,-0.72992 1.24488,-1.46496 1.87116,-2.19424 0.53486,-0.64429 1.08348,-1.27697 1.62177,-1.91834 0.45126,-0.53455 0.90703,-1.06529 1.35607,-1.6017 0.50758,-0.49642 0.86435,-1.04633 1.15188,-1.68701 0.26613,-0.68345 0.67454,-1.28683 1.10538,-1.8742 0.61794,-0.65918 1.00843,-1.46204 1.43685,-2.24608 0.40726,-0.79129 1.00029,-1.46124 1.46995,-2.2107 0.28738,-0.66528 0.58781,-1.32056 0.97106,-1.93646 0.24665,-0.60219 0.45771,-1.21147 0.76883,-1.78574 0.22677,-0.69061 0.51947,-1.34932 0.86956,-1.98564 0.36969,-0.50184 0.46615,-1.12247 0.71047,-1.6853 0.21566,-0.42378 0.30587,-0.91366 0.3597,-1.38462 -0.001,-0.55021 0.15025,-1.0787 0.10786,-1.62903 0.0458,-0.67664 0.1,-1.35007 0.0974,-2.0286 -0.008,-0.63255 -0.0163,-1.23692 -0.26059,-1.82415 -0.21125,-0.68008 -0.39438,-1.35474 -0.64294,-2.02368 -0.20312,-0.72934 -0.37819,-1.45537 -0.6285,-2.17074 -0.26187,-0.55021 -0.36344,-1.13583 -0.65083,-1.68593 -0.0691,-0.58877 -0.35677,-1.00923 -0.73316,-1.44173 -0.21471,-0.69518 -0.63646,-1.24185 -1.13193,-1.75958 -0.29373,-0.75031 -0.78138,-1.38217 -1.33747,-1.9544 -0.57441,-0.58083 -1.20399,-1.10356 -1.82395,-1.63439 -0.60368,-0.52195 -1.22195,-1.02664 -1.83045,-1.54285 -0.53108,-0.45488 -1.06604,-0.90518 -1.59583,-1.36158 -0.58644,-0.49545 -1.16961,-0.99469 -1.75151,-1.49546 -0.57367,-0.6715 -1.34358,-0.8911 -2.08651,-1.29536 -0.95917,-0.65654 -2.03287,-1.08354 -3.0262,-1.68918 -1.06745,-0.35646 -2.06344,-0.86951 -3.092,-1.31939 -0.97459,-0.44957 -1.96524,-0.82548 -2.92536,-1.31249 -1.04743,-0.28797 -1.95946,-0.86033 -2.98015,-1.22416 -0.95816,-0.50565 -2.04366,-0.53082 -3.04819,-0.8873 -8.56714,-1.43751 29.20119,5.12545 -2.09504,-0.40462 -2.84897,-0.50341 5.69227,1.03879 8.53392,1.58201 0.1679,0.0321 -0.34042,-0.0322 -0.51063,-0.0482 -3.92362,-0.35846 -7.69782,-1.2769 -11.60755,-2.02865 -2.83949,-0.54597 5.68487,1.06081 8.52731,1.59121 -1.05968,-0.19149 -2.13469,-0.25625 -3.20096,-0.39251 -1.10391,-0.10916 -2.20341,-0.2492 -3.30563,-0.3737 -1.27493,-0.074 -2.54544,-0.19343 -3.82188,-0.24287 -1.36157,-0.001 -2.72309,-0.0106 -4.08159,0.0877 -1.3742,0.009 -2.74203,0.14925 -4.11444,0.19471 -1.37752,0.0243 -2.74766,0.14955 -4.12593,0.16573 -1.25205,-0.0207 -2.50469,0.025 -3.7537,0.11044 -1.14714,0.12178 -2.29131,0.013 -3.43801,-0.014 -1.23843,-0.0457 -2.47556,-0.0215 -3.71474,-0.0192 -1.36674,0.0953 -2.73567,0.15352 -4.10448,0.22112 -1.51106,0.13819 -2.9963,0.4453 -4.50813,0.58413 -1.46732,0.12999 -2.9166,0.35758 -4.3601,0.64474 -1.26829,0.20651 -2.50861,0.55097 -3.77603,0.75718 -1.06947,0.18772 -2.136,0.36496 -3.18077,0.66279 -0.90243,0.26618 -1.80076,0.54439 -2.70575,0.80293 -0.89856,0.3287 -1.79343,0.66645 -2.69159,0.99638 -0.86474,0.26305 -1.6673,0.65781 -2.49036,1.02423 -1.03708,0.51695 -2.0232,1.12543 -3.02883,1.69916 -1.09418,0.69096 -2.15371,1.436 -3.23714,2.14442 -0.99297,0.63441 -1.9764,1.27689 -2.98219,1.89081 -0.80072,0.47478 -1.43571,1.1595 -2.19553,1.68776 -0.79423,0.50806 -1.49542,1.1303 -2.15479,1.79977 -0.67038,0.72138 -1.31874,1.46301 -1.9516,2.21744 -0.66365,0.78703 -1.34024,1.56306 -2.00006,2.35331 -0.65495,0.76764 -1.30766,1.53714 -1.96035,2.30669 -0.65315,0.75619 -1.29484,1.52208 -1.94405,2.28162 -0.74637,0.84716 -1.24294,1.87501 -1.85265,2.81998 -0.53586,0.96149 -0.90191,1.99982 -1.33631,3.00736 -0.49526,0.98655 -0.92899,2.01 -1.23338,3.07196 -0.33967,0.87048 -0.62194,1.74883 -0.78431,2.67067 -0.25324,0.95743 -0.37833,1.94056 -0.52945,2.91753 -0.13708,1.23157 -0.12243,2.46954 -0.20602,3.70516 -0.052,1.46287 -0.11102,2.92696 -0.0301,4.38922 0.0607,1.27004 0.21307,2.5222 0.61859,3.7298 0.37543,1.22201 0.96382,2.3874 1.65503,3.4616 0.70979,1.06465 1.40338,2.11775 2.26758,3.06809 0.82783,0.88961 1.5058,1.9047 2.32277,2.81003 0.65007,1.11161 1.53819,2.05293 2.44486,2.95686 0.72327,1.18177 1.855,1.93153 2.92941,2.76123 1.10583,0.95968 2.42399,1.59072 3.64061,2.39378 1.10472,0.86548 2.36176,1.48108 3.5737,2.17858 0.96979,0.61493 2.1024,0.96767 3.21711,1.22486 1.31177,0.35636 2.62704,0.72242 3.96013,0.99525 -0.47019,-0.0156 1.81998,0.41776 1.36081,0.33278 -2.76328,-0.51137 -11.05907,-2.01107 -8.28738,-1.54744 3.24791,0.54328 6.47422,1.20904 9.71624,1.78644 2.76519,0.49249 -11.02265,-2.16273 -8.28575,-1.53167 3.22775,0.74423 6.50634,1.24766 9.75951,1.87149 -1.05487,-0.14638 4.34338,0.90387 3.18329,0.68776 -8.46024,-1.576 -10.95778,-1.87523 -7.39339,-1.42537 1.53918,0.16667 3.07868,0.32912 4.61896,0.48503 1.59097,0.10422 3.18337,0.19579 4.75595,0.4663 1.48513,0.3109 2.99113,0.40799 4.50301,0.45187 1.4701,0.0745 2.94265,0.17339 4.41508,0.16286 1.47189,-0.13658 2.94733,-0.10126 4.42236,-0.13837 1.38564,-0.12495 2.77292,-0.0756 4.16001,-0.0334 1.35823,0.007 2.71041,0.0375 4.06425,-0.0899 1.18337,-0.0445 2.35344,-0.23538 3.53107,-0.34085 0.97812,-0.14179 1.97182,-0.11475 2.95798,-0.13303 0.96855,-0.065 1.93621,-0.0173 2.90348,-0.0914 0.94648,-0.0899 1.89166,-0.19268 2.83778,-0.2864 0.8286,-0.0438 1.66473,-0.0541 2.49576,-0.0334 0.77113,-0.0143 1.52905,-0.1128 2.29088,-0.22987 0,0 8.87784,2.80315 8.87784,2.80315 v 0 c -0.76235,0.1111 -1.52999,0.33268 -2.29811,0.29275 -0.81387,0.14819 -1.67846,0.0939 -2.49455,0.0234 -0.95022,0.0824 -1.89959,0.17465 -2.84721,0.28318 -0.98391,0.10724 -1.93364,0.14278 -2.91931,0.14435 -0.97637,0.0473 -1.95365,0.0476 -2.93097,0.0351 -1.17412,0.22893 -2.38963,0.25435 -3.57738,0.39604 -1.35851,0.0645 -2.71222,0.28635 -4.0802,0.13399 -1.38154,0.0952 -2.76662,-0.15025 -4.15381,-0.0143 -1.4739,0.17068 -2.95431,-0.0495 -4.42746,0.17189 -1.48366,0.0929 -2.962,-0.0231 -4.4467,-0.0832 -1.51804,-0.13019 -3.05689,-0.007 -4.55851,-0.35239 -1.56029,-0.29391 -3.12185,-0.52192 -4.71568,-0.54515 -1.54816,-0.10271 -3.08777,-0.31065 -4.62966,-0.47722 -4.66896,-0.30531 -9.25034,-1.4976 -13.80112,-2.5552 2.74832,0.49505 10.98793,2.00901 8.24496,1.48514 -3.2382,-0.61845 -6.48444,-1.19429 -9.7307,-1.7689 -2.76932,-0.49018 11.063,2.03944 8.29984,1.51563 -3.73894,-0.70877 -7.43857,-1.18158 -11.09148,-2.12021 -1.32667,-0.33353 -2.65839,-0.6493 -3.96937,-1.04178 -1.12408,-0.37231 -2.22733,-0.78882 -3.21498,-1.45804 -1.20537,-0.70239 -2.41073,-1.39706 -3.54111,-2.21891 -1.24827,-0.77784 -2.53068,-1.49942 -3.63979,-2.47892 -1.09234,-0.85953 -2.09505,-1.77054 -2.92957,-2.89096 -0.88947,-0.95093 -1.6976,-1.96255 -2.46499,-3.0138 -0.76795,-0.93649 -1.47003,-1.92713 -2.30485,-2.80744 -0.83199,-1.01734 -1.53638,-2.12051 -2.24856,-3.22357 -0.66329,-1.17183 -1.26779,-2.388 -1.63106,-3.68986 -0.35779,-1.29458 -0.52569,-2.61116 -0.57188,-3.95386 -0.0645,-1.49671 0.008,-2.99608 0.0405,-4.49309 0.0745,-1.26215 0.0525,-2.52679 0.201,-3.7842 0.13849,-0.98969 0.26212,-1.98505 0.51901,-2.95271 0.18064,-0.95065 0.42057,-1.87634 0.80776,-2.76506 0.32871,-1.09551 0.74515,-2.16854 1.27279,-3.18441 0.46664,-1.04999 0.82405,-2.14405 1.37225,-3.1587 0.64309,-0.96684 1.14625,-2.02613 1.85875,-2.93847 0.64609,-0.7618 1.29977,-1.51707 1.94219,-2.282 0.65604,-0.7673 1.31205,-1.53458 1.96429,-2.30514 0.67335,-0.77837 1.32915,-1.57163 1.99717,-2.35455 0.65412,-0.75734 1.28618,-1.53443 1.9704,-2.26526 0.6716,-0.7316 1.36463,-1.43845 2.19384,-1.99494 0.78465,-0.52188 1.45926,-1.13984 2.21603,-1.7045 0.9807,-0.66987 2.04334,-1.20527 3.00527,-1.90783 1.12733,-0.64429 2.16495,-1.4386 3.23918,-2.16539 1.00417,-0.59786 2.0184,-1.17426 3.01925,-1.77358 0.79684,-0.42146 1.62197,-0.88019 2.50648,-1.06836 0.87268,-0.42166 1.8178,-0.66821 2.70531,-1.05437 0.88551,-0.36997 1.84044,-0.52585 2.73038,-0.86786 1.06979,-0.27519 2.11194,-0.61951 3.21965,-0.73213 1.26456,-0.25733 2.53253,-0.47356 3.79964,-0.73793 1.45471,-0.28087 2.893,-0.61613 4.37588,-0.72373 1.5136,-0.18605 3.0385,-0.27165 4.532,-0.62773 1.36676,-0.0816 2.74538,-0.0795 4.10033,-0.2655 1.23631,-0.0235 2.47033,-0.0795 3.70077,0.0206 1.15706,-0.0647 2.28771,0.17135 3.44078,0.0168 1.25963,0.0417 2.51916,-0.16769 3.78243,-0.15465 1.37413,0.11854 2.73991,-0.0552 4.10975,-0.11811 1.37451,-0.003 2.72247,-0.21569 4.09733,-0.1339 1.37113,-0.13643 2.72504,-0.17028 4.10124,-0.18333 1.28165,-0.001 2.55199,0.12358 3.82728,0.18548 1.11608,0.0516 2.20797,0.27047 3.32116,0.34085 1.06675,0.11643 2.13528,0.20712 3.19566,0.37723 3.18764,0.57611 6.36935,1.18609 9.56294,1.72832 2.84479,0.483 -5.67877,-1.02788 -8.51654,-1.55065 -0.32554,-0.06 0.64728,0.14076 0.97423,0.19259 0.34796,0.0552 0.70642,0.0195 1.05411,0.077 3.37204,0.49365 6.68811,1.35414 10.07296,1.75054 2.86434,0.33545 -11.34212,-2.10335 -8.51122,-1.5529 3.18227,0.61876 6.37891,1.16149 9.56545,1.75789 0.21026,0.0394 0.85169,0.22571 1.04125,0.27918 1.04324,0.23734 2.06695,0.52026 3.04294,0.97127 0.99665,0.42698 1.97247,0.90099 2.98166,1.29787 0.96036,0.44665 1.95478,0.81523 2.91198,1.27034 1.03957,0.44437 2.06931,0.925 3.08171,1.42491 1.01855,0.55129 2.05538,1.06469 3.05423,1.65176 0.78241,0.38975 1.43954,0.90541 2.07675,1.50493 0.58912,0.49642 1.17693,0.99435 1.76152,1.49611 0.53712,0.45214 1.07036,0.90885 1.60747,1.36098 0.60584,0.51328 1.20326,1.03648 1.8091,1.54976 0.63615,0.55354 1.27052,1.11542 1.81477,1.76216 0.50189,0.62502 0.88323,1.32173 1.34425,1.97149 0.44002,0.57784 0.76117,1.21233 1.14242,1.82345 0.32837,0.51469 0.51689,1.07132 0.72034,1.64152 0.22884,0.58936 0.35783,1.20816 0.61673,1.78671 0.21194,0.71697 0.40367,1.44004 0.63218,2.15188 0.21696,0.67927 0.43022,1.35921 0.64824,2.0381 0.181,0.69027 0.20806,1.39601 0.20689,2.10756 0.009,0.67219 -0.0615,1.33611 -0.0884,2.00654 0.003,0.59273 -0.0776,1.17272 -0.12005,1.76234 -0.0603,0.56425 -0.17781,1.17568 -0.42046,1.6834 -0.29256,0.57377 -0.34544,1.2457 -0.73655,1.76618 -0.38201,0.6206 -0.68749,1.27229 -0.86581,1.9826 -0.35438,0.57276 -0.57261,1.19929 -0.78133,1.83749 -0.40088,0.57903 -0.7135,1.20462 -0.97002,1.86075 -0.3935,0.80065 -1.05319,1.42812 -1.47964,2.21608 -0.45862,0.80949 -0.80866,1.69017 -1.44644,2.37995 -0.40883,0.51834 -0.80769,1.04949 -1.06205,1.66434 -0.31912,0.71701 -0.60933,1.40256 -1.19942,1.9491 -0.45937,0.53019 -0.91193,1.06626 -1.36902,1.5984 -0.54936,0.63586 -1.08812,1.28087 -1.64128,1.91349 -0.61925,0.73336 -1.24485,1.46125 -1.8638,2.19485 -0.56448,0.66441 -1.12891,1.32877 -1.68644,1.99906 -0.50061,0.58016 -0.9881,1.17267 -1.51506,1.72932 -0.60039,0.63641 -1.23242,1.24076 -1.96138,1.73013 -0.21291,0.13604 -0.45602,0.22803 -0.65017,0.38975 -0.43204,0.35989 -0.72927,0.89325 -1.19208,1.22672 -0.30124,0.25812 -0.61611,0.50769 -0.95177,0.7209 -0.16899,0.10729 -0.38367,0.13109 -0.54814,0.24514 -0.1,0.0693 -0.16709,0.17678 -0.25063,0.26516 -0.58496,0.54456 -1.19701,1.04874 -1.90498,1.42932 -0.76283,0.36905 -1.29514,1.1097 -2.07182,1.4777 -0.68574,0.30196 -1.15038,0.97521 -1.86603,1.24833 -0.66251,0.17301 -1.10021,0.91724 -1.80408,1.07836 -0.72701,0.24127 -1.22027,0.98177 -2.01153,1.12114 -0.40679,0.32916 -0.87404,0.6964 -1.37873,0.86123 -0.10044,0.0328 -0.21472,0.0181 -0.31092,0.0618 -0.12026,0.0547 -0.21656,0.15143 -0.32486,0.22712 -0.74824,0.36985 -1.46823,0.71387 -2.15674,1.19603 -0.63061,0.26719 -1.29865,0.45836 -1.8684,0.76509 -0.70213,0.20048 -0.20842,0.0597 -0.54383,-0.0272 -0.17145,-0.0443 -0.46972,0.36802 -0.65093,0.3275 -0.30784,0.14818 -0.59971,0.10918 -0.89797,0.235 -0.32739,0.1381 -0.61314,0.42941 -0.98093,0.49845 -0.47184,0.076 -0.82213,0.40666 -1.28501,0.54814 -0.0989,0.0302 -0.21081,0.009 -0.30602,0.0495 -0.11871,0.0501 -0.21417,0.14338 -0.32125,0.21506 -0.70039,0.29319 -1.3844,0.52881 -2.08764,0.82044 -0.97095,0.13954 -1.88884,0.67641 -2.86278,0.86309 -1.55133,0.2406 -3.10651,0.41499 -4.67748,0.42901 0,0 -8.793,-3.03583 -8.793,-3.03583 z"
     inkscape:connector-curvature="0" />
  <path
     style="opacity:0.97000002;fill:#ff6600;fill-opacity:1;stroke:#ff6600;stroke-width:3.85511804;stroke-miterlimit:4;stroke-dasharray:none;stroke-dashoffset:6.99212599;stroke-opacity:1"
     id="path5921"
     d="m 872.8556,759.95395 c -0.85458,1.09655 -1.54222,2.30963 -2.31098,3.46583 -0.34724,0.66847 -0.60883,1.37505 -0.93234,2.05547 -0.003,0.41343 -0.18414,0.80835 -0.21433,1.21247 -0.0814,0.52083 -0.21354,1.1038 -0.0878,1.62625 0.0789,0.7149 0.0659,1.43405 0.0677,2.15667 0.126,0.79148 0.42664,1.52333 0.69012,2.27508 0.4444,0.77365 0.76118,1.58757 1.30859,2.30227 0.69298,0.93104 1.34697,1.87737 2.14075,2.73432 0.65328,0.98594 1.38088,1.9185 2.20492,2.76663 0.72135,0.70924 1.49473,1.36244 2.26302,2.01958 0.84876,0.80986 1.75416,1.4767 2.77328,2.04507 1.1091,0.62015 2.1228,1.38752 3.11623,2.17501 1.01395,0.70481 2.10035,1.41933 3.24004,1.91384 1.21231,0.57847 2.34515,1.29435 3.52398,1.9364 1.24277,0.71729 2.58011,1.25267 3.90293,1.80225 1.21559,0.54974 2.46917,1.00902 3.70896,1.50313 1.33206,0.57315 2.67272,1.14851 4.06726,1.56103 1.47821,0.46157 2.96946,0.85166 4.3947,1.46915 1.46656,0.52982 2.9424,1.01683 4.40515,1.55827 1.54729,0.46066 3.08383,0.96092 4.61131,1.48268 1.48733,0.47095 3.02122,0.66378 4.4835,1.20883 1.43073,0.50527 2.9007,0.87648 4.34803,1.32624 1.3623,0.36108 2.74528,0.64561 4.10012,1.03456 7.90283,1.30584 -30.32948,-5.4195 2.11215,0.38071 2.76553,0.49445 -11.04775,-2.05627 -8.28769,-1.53222 7.54545,1.43267 6.6391,1.27343 10.41713,1.924 -2.75839,-0.51161 -5.51851,-1.01401 -8.27517,-1.53484 -0.48027,-0.0907 0.96843,0.13572 1.44878,0.22612 3.61908,0.68105 7.67114,1.13764 11.32438,2.29584 1.50676,0.32092 3.01163,0.6662 4.52771,0.9432 3.57434,0.92692 11.52372,2.34002 -4.25251,-0.60609 26.31925,4.87574 1.30355,0.241 1.49935,0.27901 3.94103,0.76503 7.90016,1.49866 11.84271,2.25462 -15.51933,-2.79527 -8.68398,-1.46934 -5.11649,-1.13209 1.16522,0.10009 2.33603,0.0892 3.50343,0.14296 1.16872,0.11872 2.33031,0.2354 3.5069,0.19588 1.1235,-0.0569 2.24914,-0.0499 3.37417,-0.0828 1.14077,0.006 2.26046,-0.23161 3.39257,-0.32623 0.90622,-0.012 1.8009,-0.0907 2.69941,-0.18593 0.69859,-0.021 1.3741,-0.22655 2.0769,-0.20651 0.59813,-0.10595 1.19213,-0.18621 1.7926,-0.30632 0.77219,-0.12495 1.53728,-0.25822 2.29796,-0.43967 0.94245,-0.11187 1.88212,-0.19489 2.83098,-0.22005 0.84823,-0.0341 1.70861,0.01 2.54418,-0.15411 0.75166,-0.0988 1.51255,-0.12213 2.26994,-0.14455 0.85862,-0.18634 1.72614,-0.26376 2.60369,-0.28801 1.02755,-0.0133 2.05394,0.0568 3.07996,0.11594 1.20944,0.0611 2.41006,0.23907 3.6187,0.31681 1.31678,0.1178 2.62896,0.29312 3.93708,0.48493 1.34699,0.18211 2.69953,0.30973 4.05457,0.41204 1.26612,0.11544 2.53743,0.20565 3.79904,0.3654 1.21231,0.16088 2.43355,0.19699 3.64895,0.3275 1.427,0.20929 2.8552,0.41115 4.2873,0.58212 1.5189,0.22448 3.0532,0.32161 4.5828,0.44631 0.7787,0.0842 1.5719,0.11394 2.3443,0.25196 3.2744,0.58506 6.5437,1.19818 9.8152,1.79971 0.2755,0.0507 1.1009,0.20781 0.8255,0.15684 -2.7186,-0.5033 -5.4367,-1.00919 -8.155,-1.51381 1.5834,0.22995 3.1771,0.37453 4.7643,0.57235 1.3354,0.23679 2.6891,0.29584 4.0401,0.38064 1.2493,0.042 2.5009,0.0567 3.7509,0.0466 1.1209,0.0894 2.2381,-0.0483 3.3566,-0.0874 1.0525,0.022 2.095,-0.0969 3.1427,-0.17361 1.1544,-0.1268 2.3123,-0.22288 3.4711,-0.30421 1.0926,-0.15714 2.1964,-0.1847 3.2922,-0.30375 1.0257,-0.1353 2.0581,-0.1346 3.0901,-0.17311 1.0466,-0.14603 2.1054,-0.11006 3.1518,-0.25375 1.1758,-0.0899 2.3448,-0.25447 3.5128,-0.41663 1.1659,-0.10562 2.3251,-0.26483 3.4867,-0.41106 1.1547,-0.15123 2.2889,-0.42603 3.4457,-0.55928 1.1882,-0.17044 2.3832,-0.26967 3.5739,-0.42428 1.3521,-0.13215 2.691,-0.31444 4.0254,-0.56795 1.5813,-0.25995 3.1622,-0.50033 4.735,-0.80981 1.6421,-0.25 3.2626,-0.58729 4.8709,-1.00018 1.7784,-0.36289 3.5171,-0.86535 5.2619,-1.35878 1.9975,-0.62498 4.0424,-1.0306 6.1092,-1.33917 2.2408,-0.31459 4.441,-0.8464 6.6656,-1.25142 2.4005,-0.51092 4.8051,-0.98186 7.2345,-1.33573 2.4124,-0.2853 4.7906,-0.78186 7.1847,-1.18163 2.3366,-0.36207 4.6712,-0.74513 7.0205,-1.0157 2.2643,-0.21637 4.5331,-0.35384 6.8044,-0.46812 2.2,-0.059 4.3827,-0.27651 6.5588,-0.5926 2.075,-0.33731 4.1236,-0.81129 6.1769,-1.25706 1.9616,-0.38987 3.9133,-0.82237 5.8869,-1.1485 1.9747,-0.38604 3.9739,-0.58608 5.9724,-0.7921 1.7293,-0.2382 3.458,-0.47626 5.1933,-0.66732 1.7727,-0.17604 3.546,-0.35681 5.3255,-0.44433 1.9021,-0.0192 3.804,0.003 5.7023,-0.13314 2.1771,-0.18147 4.358,-0.33761 6.5412,-0.42239 2.4083,-0.0583 4.8159,-0.0461 7.2244,-0.0191 2.41,-0.0607 4.8148,0.0963 7.2202,0.21126 2.3159,0.0598 4.6319,0.12753 6.9456,0.2472 2.1481,0.10491 4.2906,0.25776 6.4422,0.25933 2.1711,-0.0588 4.3436,-0.036 6.5135,0.0538 2.3254,0.16497 4.6565,0.14767 6.9811,0.32365 2.4569,0.16995 4.8806,0.61133 7.3057,1.01934 3.3863,0.62068 6.774,1.23392 10.159,1.86203 0.4213,0.0782 1.6812,0.33314 1.2596,0.25675 -2.5639,-0.46474 -5.1249,-0.94632 -7.6869,-1.42172 -0.4087,-0.0759 0.8176,0.15157 1.2272,0.22302 0.8087,0.14095 1.5528,0.25569 2.3637,0.38418 5.2852,0.8133 10.5334,1.84326 15.7733,2.90076 1.8324,0.40238 3.5961,1.04993 5.4121,1.50982 1.414,0.39574 2.8289,0.80962 4.2668,1.11174 1.4526,0.5415 2.9701,0.87224 4.4084,1.45293 1.2986,0.44203 2.6047,0.89791 3.847,1.48466 0.785,0.15076 1.4711,0.5864 2.205,0.85742 0.3027,0.11177 0.6277,0.15209 0.9349,0.25089 0.3265,0.10467 0.6538,0.20699 0.9813,0.30889 0,0 -9.3446,-0.3515 -9.3446,-0.3515 v 0 c -0.314,-0.10401 -0.6281,-0.20787 -0.9424,-0.31114 -1.0516,-0.34591 -2.0643,-0.82 -3.1058,-1.19723 -1.2673,-0.5081 -2.5451,-0.98984 -3.8374,-1.43053 -1.4578,-0.48815 -2.9349,-0.9262 -4.4156,-1.33861 -1.4191,-0.36733 -2.8397,-0.72978 -4.2459,-1.14498 -1.7789,-0.52239 -3.5507,-1.07894 -5.3689,-1.45207 -3.1495,-0.67975 -8.6754,-1.69841 5.6758,0.95662 0.3932,0.0728 -0.7891,-0.12831 -1.1843,-0.18916 -2.0341,-0.31313 -0.3324,-0.0268 -2.3856,-0.38508 -4.6061,-0.73001 -9.1446,-1.60604 -13.7493,-2.45856 -2.1375,-0.3958 -11.8919,-2.39181 6.4168,1.16241 -2.4167,-0.41818 -4.8314,-0.88443 -7.2782,-1.08724 -2.3116,-0.23964 -4.6286,-0.20211 -6.9433,-0.35512 -2.1666,-0.10001 -4.3373,-0.18307 -6.506,-0.10229 -2.1587,0.0394 -4.3045,-0.0663 -6.458,-0.20511 -2.3183,-0.12386 -4.6379,-0.2364 -6.9595,-0.26539 -2.4055,-0.0709 -4.8056,-0.32618 -7.2151,-0.24156 -2.4016,2.8e-4 -4.8015,-0.0716 -7.2032,-0.002 -2.1663,0.0183 -4.3249,0.2401 -6.4872,0.36326 -1.895,0.25505 -3.8106,0.20609 -5.7195,0.20377 -1.7698,-0.002 -3.5285,0.23362 -5.291,0.37703 -1.7389,0.17587 -3.4743,0.38267 -5.2016,0.65166 -1.9863,0.26781 -4.0048,0.30303 -5.9651,0.76029 -1.9777,0.28647 -3.926,0.7045 -5.8837,1.09797 -2.07,0.4207 -4.1218,0.92214 -6.199,1.30983 -2.1875,0.32278 -4.3705,0.63621 -6.5867,0.67694 -2.2736,0.10828 -4.5453,0.21078 -6.8112,0.42027 -2.3519,0.18231 -4.6722,0.63475 -7.0066,0.95869 -2.4047,0.37373 -4.7814,0.8975 -7.1961,1.20769 -2.4306,0.27655 -4.833,0.74429 -7.2138,1.29987 -2.2323,0.37402 -4.4275,0.91432 -6.6601,1.28601 -2.044,0.26655 -4.0842,0.58734 -6.0482,1.236 -1.7556,0.45766 -3.4634,1.08009 -5.2606,1.372 -1.6116,0.41656 -3.2119,0.87756 -4.8728,1.05937 -1.5734,0.29659 -3.134,0.6302 -4.7263,0.81666 -1.3362,0.24916 -2.6551,0.55683 -4.018,0.62858 -1.19,0.14731 -2.3743,0.31442 -3.5641,0.41009 -1.1508,0.20017 -2.3248,0.27148 -3.4586,0.57864 -1.1593,0.13311 -2.3148,0.36775 -3.4807,0.38481 -1.17,0.1882 -2.3412,0.33218 -3.5136,0.4728 -1.0438,0.0458 -2.0819,0.2856 -3.1411,0.21922 -1.0317,0.22521 -2.0808,0.0242 -3.113,0.23229 -1.0965,0.0149 -2.1861,0.20264 -3.2819,0.2431 -1.1381,0.20865 -2.3107,0.19959 -3.4621,0.29485 -1.0386,0.21322 -2.12,0.23215 -3.1753,0.28068 -1.1335,0.004 -2.2458,0.1452 -3.3772,0.13053 -1.2549,-0.0903 -2.5131,0.002 -3.7729,-0.0409 -1.3591,-0.0372 -2.7378,-0.0876 -4.0738,-0.31937 -1.5963,-0.18395 -3.1892,-0.38516 -4.7877,-0.54611 -3.2751,-0.59127 -6.5508,-1.17898 -9.8252,-1.77379 -0.276,-0.0502 -1.1023,-0.21052 -0.8261,-0.1611 2.7252,0.48765 5.4506,0.97447 8.1733,1.47583 0.5187,0.0955 -1.9972,-0.32422 -1.569,-0.20287 -0.2487,-0.0354 -0.4974,-0.0707 -0.7462,-0.10612 -1.5362,-0.0796 -3.0678,-0.23809 -4.5988,-0.37665 -1.4174,-0.24019 -2.8559,-0.3449 -4.2764,-0.56929 -1.2041,-0.24265 -2.4164,-0.2445 -3.6347,-0.35393 -1.2622,-0.14595 -2.5236,-0.27211 -3.7861,-0.42765 -1.3704,-0.0409 -2.72523,-0.20378 -4.08617,-0.34004 -1.30322,-0.16841 -2.60037,-0.37866 -3.90523,-0.51785 -1.19372,-0.14463 -2.4017,-0.14448 -3.58917,-0.36553 -1.0216,-0.008 -2.04494,-0.0962 -3.05507,-0.16923 -0.85593,0.0282 -1.70676,-0.01 -2.54074,0.1476 -0.7335,0.25426 -1.52538,0.17128 -2.29433,0.21145 -0.85025,0.0312 -1.7017,0.32944 -2.57742,0.24188 -0.94027,0.008 -1.87089,0.003 -2.79732,0.12947 -0.78294,-0.004 -1.48295,0.34403 -2.2669,0.38623 -0.61674,0.10837 -1.20929,0.2619 -1.80283,0.33437 -0.68372,0.2171 -1.43633,-0.002 -2.11049,0.29264 -0.91832,0.003 -1.80025,0.24034 -2.72904,0.17576 -1.15214,0.0305 -2.2641,0.24444 -3.40912,0.34402 -1.12427,0.0383 -2.25829,0.0103 -3.37241,0.11813 -1.17652,-0.0493 -2.36739,0.15437 -3.52811,-0.16164 -1.17392,-0.0541 -2.33553,-0.10426 -3.51111,-0.10549 -4.37528,-0.34901 -8.61439,-1.19708 -12.95086,-2.12587 -0.87584,-0.19521 -0.52428,-0.12108 -1.39606,-0.2987 -0.24052,-0.049 -0.96328,-0.18979 -0.72172,-0.14624 2.76249,0.49799 11.04374,2.02619 8.28465,1.5096 -0.45222,-0.0847 -23.19087,-4.24113 -1.50592,-0.27686 -4.61433,-0.85373 -9.18994,-1.65103 -13.74692,-2.70763 -1.50845,-0.32409 -3.03252,-0.58994 -4.51465,-1.02421 -0.51987,-0.13872 -2.09391,-0.49207 -1.56369,-0.40054 14.67416,2.53309 9.94737,1.80744 6.79674,1.24319 -3.24866,-0.58181 -6.49833,-1.15797 -9.7475,-1.73695 -0.2368,-0.047 -0.948,-0.18404 -0.71041,-0.14115 2.77071,0.50013 11.08054,2.01333 8.30988,1.51292 -3.24379,-0.58587 -6.48356,-1.19405 -9.72925,-1.76928 -2.76994,-0.49091 11.06523,2.04353 8.30197,1.51633 -3.2387,-0.61793 -6.48817,-1.17819 -9.72831,-1.78847 -0.23249,-0.0438 -0.4588,-0.11563 -0.6882,-0.17344 -1.37013,-0.3338 -2.73749,-0.68079 -4.09538,-1.06157 -1.45631,-0.41233 -2.89424,-0.8826 -4.33262,-1.3531 -1.48819,-0.42603 -3.02311,-0.68135 -4.48394,-1.2105 -1.53896,-0.49438 -3.07185,-1.00796 -4.60959,-1.50591 -1.47442,-0.51454 -2.95085,-1.02524 -4.40671,-1.59076 -1.44778,-0.52978 -2.94148,-0.90948 -4.39847,-1.41232 -1.37579,-0.50097 -2.73284,-1.04954 -4.08471,-1.6116 -1.24655,-0.47712 -2.47622,-0.99937 -3.70355,-1.52354 -1.33106,-0.55582 -2.63338,-1.18632 -3.88834,-1.89789 -1.17871,-0.64121 -2.31857,-1.35317 -3.54282,-1.90885 -1.11154,-0.64094 -2.24409,-1.26341 -3.23183,-2.08995 -0.9993,-0.75114 -2.03329,-1.4512 -3.12447,-2.06363 -1.00407,-0.63643 -1.87749,-1.43828 -2.78097,-2.20723 -0.78068,-0.67662 -1.55427,-1.3648 -2.25154,-2.12888 -0.77434,-0.89287 -1.44322,-1.86538 -2.18733,-2.7823 -0.76924,-0.91151 -1.43754,-1.89468 -2.15104,-2.84923 -0.50225,-0.80851 -0.91347,-1.67811 -1.28851,-2.5511 -0.28941,-0.84378 -0.6087,-1.68522 -0.65739,-2.5868 0.004,-0.68583 -0.008,-1.36685 -0.0977,-2.04774 -0.0331,-0.6145 -0.006,-1.23707 0.11503,-1.84092 0.067,-0.51521 0.22145,-1.01963 0.28272,-1.54043 0.38278,-0.70006 0.66752,-1.44093 1.00696,-2.16202 0.81746,-1.15978 1.57969,-2.35666 2.32704,-3.56258 0,0 9.05109,2.15904 9.05109,2.15904 z"
     inkscape:connector-curvature="0" />
  <path
     style="opacity:0.97000002;fill:#ff6600;fill-opacity:1;stroke:#ff6600;stroke-width:3.85511804;stroke-miterlimit:4;stroke-dasharray:none;stroke-dashoffset:6.99212599;stroke-opacity:1"
     id="path5923"
     d="m 489.90642,802.2609 c -3.19681,0.57041 -6.33829,1.47098 -9.54032,2.00424 -1.51298,0.25543 -3.02416,0.43845 -4.52556,0.75655 -1.28907,0.38412 -2.52259,0.43055 -3.85004,0.41015 -1.36204,0.43296 -2.77392,0.77593 -4.20674,0.87345 -1.66782,-0.0631 -3.28169,0.34853 -4.93273,0.51739 -1.56499,-0.0634 -3.07853,0.40306 -4.61791,0.57559 -1.45764,0.0614 -2.93457,0.0441 -4.41376,-0.001 -1.90528,-0.0151 -3.77631,0.29627 -5.68457,0.38427 -2.08374,0.0879 -4.1649,0.22005 -6.24583,0.35802 -2.35373,0.0934 -4.71495,0.0829 -7.06719,0.25463 -2.12775,0.42857 -4.27354,0.27516 -6.41873,0.3948 -2.25729,-0.0986 -4.42616,0.54908 -6.61894,0.9429 -2.9572,0.54289 -5.91967,1.06067 -8.88446,1.56991 -3.2713,0.71989 -6.55325,1.36476 -9.87237,1.81697 -3.33566,0.46753 -6.66278,0.88021 -10.02428,1.10667 -3.44381,0.21033 -6.88578,0.45022 -10.32711,0.69773 -3.07565,0.1352 -6.10833,0.53645 -9.14228,1.0283 -3.14734,0.11972 -6.18836,0.80179 -9.22843,1.5611 -3.04008,0.83705 -6.17921,1.16933 -9.26276,1.79284 -3.41404,0.70381 -6.78929,1.57435 -10.18702,2.35404 -3.62024,0.79143 -7.1556,1.8515 -10.64853,3.08167 -3.30531,1.15195 -6.53815,2.47265 -9.67293,4.02713 -2.52127,1.29199 -5.1106,2.42489 -7.57623,3.82166 -2.30324,1.32753 -4.58351,2.6875 -6.92055,3.95709 -2.77331,1.32692 -5.32376,3.04826 -7.89419,4.71988 -2.37274,1.53774 -4.76374,3.04311 -7.15421,4.55235 -2.14227,1.20914 -4.19868,2.59293 -6.38716,3.71675 -1.53072,0.88248 -3.11899,1.60574 -4.73962,2.30146 -1.4112,0.79919 -2.94158,1.28423 -4.50812,1.64406 -1.08774,0.32044 -2.17405,0.59023 -3.29469,0.76734 -1.58329,0.0993 -3.12389,0.36496 -4.68349,0.60486 -0.66981,0.1 -1.35054,0.10217 -2.01936,0.20196 -0.42919,-0.20589 -1.02838,-0.10683 -1.54475,-0.069 -0.61755,0.1914 -1.06319,0.0763 -1.67054,-0.0404 0,0 -20.60372,-6.67827 -20.60372,-6.67827 v 0 c 0.87104,-0.25293 0.89938,-0.11479 1.64568,0.039 0.54292,-0.0423 1.19412,-0.0591 1.62775,-0.25568 0.65234,0.18353 1.34257,0.15306 2.01642,0.1667 1.60064,-0.0187 3.02725,-0.52053 4.64279,-0.54599 1.0855,-0.0761 2.1827,-0.13341 3.21771,-0.48865 1.49012,-0.41373 2.91809,-0.55544 4.37417,-1.10875 1.52094,-1.01216 3.28522,-1.34992 4.80357,-2.35614 2.16176,-1.09614 4.19823,-2.34981 6.36369,-3.46617 2.34375,-1.63703 4.86894,-2.9819 7.22908,-4.60076 2.6651,-1.57879 5.11343,-3.51883 7.87916,-4.93732 2.41519,-1.07905 4.66772,-2.49192 6.90875,-3.8878 2.55382,-1.29475 5.01996,-2.74547 7.65283,-3.89671 3.21508,-1.50856 6.36342,-3.15682 9.77842,-4.20406 3.47842,-1.36573 7.02556,-2.54777 10.68714,-3.31332 3.36408,-0.92866 6.81928,-1.56037 10.19437,-2.44288 3.07179,-0.67003 6.16535,-1.0972 9.24428,-1.73135 3.07374,-0.7175 6.09112,-1.82489 9.2862,-1.82319 3.08085,-0.19237 6.07525,-1.17287 9.19814,-1.09605 3.44362,-0.26579 6.88929,-0.49937 10.33626,-0.71647 3.34556,-0.20864 6.67518,-0.40562 9.97563,-0.98733 3.3048,-0.37784 6.59399,-0.87786 9.83079,-1.65904 2.9244,-0.68641 5.94833,-0.8667 8.835,-1.74166 2.28459,-0.18836 4.41192,-0.93647 6.69964,-1.20307 3.32341,0.15893 -1.17862,0.0177 2.23751,-0.12469 1.37769,-0.0574 2.73621,0.45536 4.11115,-0.0695 2.34008,-0.31237 4.74174,-0.45476 7.08457,-0.31916 2.08573,-0.16541 4.17348,-0.31334 6.26366,-0.40772 1.9199,-0.0965 3.82382,-0.0761 5.68034,-0.47653 1.47534,-0.0692 3.00523,0.23079 4.39952,-0.0829 1.57549,0.27643 3.06676,-0.12004 4.60427,-0.44928 1.7147,0.0736 3.26116,-0.27288 4.92338,-0.50408 0.578,-0.004 1.49746,0.19224 2.05636,0.0742 0.66616,-0.14067 1.18975,-0.56208 1.94504,-0.36758 1.35507,-0.8395 2.48195,-0.41525 3.95174,-0.67607 1.59662,-0.27851 3.06993,-0.53595 4.63865,-0.91505 3.22395,-0.14551 6.2457,-1.27598 9.45106,-1.64419 0,0 20.5944,6.2122 20.5944,6.2122 z"
     inkscape:connector-curvature="0" />
  <path
     style="opacity:0.97000002;fill:#ff6600;fill-opacity:1;stroke:#ff6600;stroke-width:3.85511804;stroke-miterlimit:4;stroke-dasharray:none;stroke-dashoffset:6.99212599;stroke-opacity:1"
     id="path5925"
     d="m 1244.9847,558.80017 c -2.9614,0.31416 -5.9425,0.28886 -8.9063,0.54834 -7.6927,0.90119 -17.7056,-2.39753 -23.2396,-3.77319 -6.7636,-1.6814 13.7252,2.43088 20.5875,3.64777 0.3051,0.0542 -0.629,0.0401 -0.9161,0.15639 -1.0069,0.12057 -2.0142,-0.1234 -3.0325,-0.19909 -8.2911,0.34072 -7.0002,-1.37679 -23.0676,-3.87816 -6.7678,-1.05363 13.473,2.47583 20.2078,3.72365 0.4624,0.0856 -0.9299,-0.14257 -1.3961,-0.20451 -70.2427,-12.5314 13.8673,1.78581 -3.5923,-0.61987 -7.1818,-1.39965 -14.3636,-2.7993 -21.5454,-4.19895 -0.3529,-0.0392 -0.5398,-0.48741 -0.88,-0.55496 -0.365,-0.0725 -0.7438,0.0585 -1.1157,0.0425 6.8416,1.25366 13.6833,2.50731 20.525,3.76096 -8.7801,-1.33938 -17.5967,-0.22748 -23.9954,-5.86109 -0.1444,-0.1203 -0.2554,-0.29875 -0.4325,-0.36173 -0.3902,-0.13944 -0.8427,0.0136 -1.2382,-0.11013 -0.6934,-0.21684 -1.372,-0.62538 -1.9748,-1.01704 -1.4044,-0.58904 -2.8717,-0.84038 -4.2156,-1.68981 -1.2119,-1.04118 -2.7509,-1.03747 -4.1414,-1.7983 -1.337,-0.70909 -2.5098,-1.69546 -3.6575,-2.67425 -0.9231,-0.58258 -1.5734,-1.61421 -2.5119,-2.16341 -0.5346,-0.31292 -1.1657,-0.42218 -1.7344,-0.66794 -1.9933,-0.99988 -3.7909,-2.31104 -5.529,-3.6955 -1.9432,-1.80353 -4.358,-2.91255 -6.6308,-4.24454 -1.9421,-1.21725 -3.7236,-2.6671 -5.5034,-4.10549 -0.2384,-0.20045 -0.4391,-0.45712 -0.7154,-0.60134 -0.4759,-0.24935 -1.0544,-0.23833 -1.5466,-0.45356 -0.8397,-0.36713 -1.6436,-0.83365 -2.4148,-1.32422 -1.6684,-1.12224 -3.1833,-2.44306 -4.7267,-3.72612 -1.916,-0.88691 -3.8298,-1.6843 -5.7779,-2.47589 -1.9552,-0.99414 -4.0895,-1.39203 -6.0192,-2.44233 -1.5399,-0.97443 -3.2443,-1.69101 -5.0829,-1.85225 -1.8479,-0.71199 -3.7974,-1.09302 -5.6281,-1.8377 -1.6289,-0.64685 -3.3286,-1.50756 -5.102,-1.62695 -2.0179,-0.59431 -3.98,-0.99363 -5.9426,-1.80834 -1.7076,0.0144 -3.1902,-1.05272 -4.817,-1.20861 -8.517,-1.14428 26.0347,5.64499 19.6656,3.66991 -7.0089,-2.17346 -14.4241,-2.71052 -21.6211,-4.14296 -0.3687,-0.0734 -1.3794,-0.57071 -1.0095,-0.50303 6.8064,1.24544 13.5949,2.58698 20.3924,3.88046 -0.347,0.002 -0.6835,-0.0131 -1.0042,-0.10789 0,0 -20.9163,-5.77415 -20.9163,-5.77415 v 0 c 0.3661,-0.42378 0.829,-0.65699 1.373,-0.79944 72.8207,12.68573 -47.8415,-8.46189 24.7031,4.45267 1.5476,0.63106 3.2325,0.75181 4.7714,1.43087 1.9556,0.61973 3.981,0.99499 5.9589,1.53803 1.6831,0.66299 3.4138,1.15046 5.0855,1.8458 1.8935,0.51652 3.7146,1.26149 5.6513,1.6222 1.745,0.65197 3.3932,1.40999 5.036,2.28758 2.0153,0.75285 4.0433,1.45304 6.007,2.34112 2.022,0.8081 4.0446,1.79887 5.7671,3.13635 1.5037,1.2293 3.0454,2.43387 4.7713,3.33979 1.6386,0.78963 3.3411,1.41742 4.647,2.73753 1.738,1.38229 3.5311,2.6996 5.467,3.79525 2.3037,1.37005 4.6024,2.71834 6.6334,4.48808 1.7656,1.25789 3.6125,2.39208 5.5807,3.3094 1.5629,0.89562 2.8238,2.19336 4.2601,3.27423 1.1484,0.84261 2.3281,1.63711 3.6858,2.10852 1.4846,0.47415 2.7872,1.13873 4.138,1.90043 1.4446,0.50601 2.921,0.8755 4.2195,1.71839 1.3194,0.48317 2.6302,0.81497 3.6528,1.84041 6.3545,3.71976 22.4026,2.94566 -18.0118,-2.76135 7.1761,1.30263 14.3574,2.57726 21.5285,3.90796 6.4133,1.19009 21.5325,27.66583 -18.4948,-3.00385 14.0079,2.82514 45.732,8.23509 3.5774,0.73955 7.9126,0.76216 14.0763,2.3405 23.2233,4.09984 6.7734,1.3028 -13.5669,-2.50062 -20.3617,-3.68669 -0.4337,-0.0757 1.6414,0.63941 1.3048,0.20461 1.0008,-0.099 2.0776,-0.23612 3.0076,0.17622 1.4496,0.77723 -0.8164,-0.29643 0.8855,-0.0399 7.2204,1.08833 14.3386,4.24419 21.6107,3.58428 6.9048,-0.62659 -13.6436,-2.47512 -20.4698,-3.68779 -0.5271,-0.0937 2.2966,0.5459 1.5712,0.33107 2.9894,-0.3273 5.9602,-0.28488 8.9504,-0.57599 0,0 20.4718,6.61873 20.4718,6.61873 z"
     inkscape:connector-curvature="0" />
  <path
     style="opacity:0.97000002;fill:#ff6600;fill-opacity:1;stroke:#ff6600;stroke-width:3.85511804;stroke-miterlimit:4;stroke-dasharray:none;stroke-dashoffset:6.99212599;stroke-opacity:1"
     id="path5927"
     d="m 1126.1165,557.26742 c -2.1155,-2.54111 -4.4227,-4.9119 -6.8135,-7.19262 -1.4843,-1.71739 -3.5677,-2.41192 -5.5294,-3.4304 -1.6255,-1.19754 -3.529,-1.71188 -5.3352,-2.61075 -1.7888,-0.45149 -3.5796,-0.89809 -5.32,-1.4828 -2.0893,-0.70597 -4.2366,-1.37904 -6.4103,-1.90836 -2.2172,-0.83264 -4.5477,-1.30582 -6.8033,-2.01068 -2.3061,-0.61001 -4.6328,-1.08434 -6.9279,-1.76781 -2.2612,-0.66087 -4.3765,-1.82551 -6.6273,-2.49363 -2.2086,-0.77509 -4.4359,-1.40506 -6.7357,-1.87085 46.1887,8.61625 4.6018,0.83606 -2.52,-0.39439 -6.5217,-1.12677 13.0168,2.40202 19.5252,3.60303 -7.4205,-1.37726 -14.8351,-2.78648 -22.2615,-4.13175 -6.5249,-1.18195 13.0431,2.40067 19.5569,3.64181 0.4268,0.0813 -0.8622,-0.10793 -1.2933,-0.16189 -2.5226,-0.51519 -5.0844,-0.25821 -7.6304,-0.20544 -2.5257,0.0118 -5.0111,0.49538 -7.5208,0.7011 -2.5928,0.37872 -5.2039,0.54687 -7.8219,0.55818 -2.6205,-0.0806 -5.2362,0.1518 -7.8542,0.0287 -2.7443,0.0589 -5.4834,-0.15217 -8.2249,-0.19575 -2.7938,-0.0308 -5.5792,0.11766 -8.3726,0.15988 -2.7517,0.088 -5.4943,0.3111 -8.2454,0.41072 -2.257,0.0494 -4.5129,0.13619 -6.7659,0.27862 -2.4474,0.15382 -4.8926,0.34247 -7.3364,0.54402 -2.7058,0.21728 -5.4125,0.42559 -8.1176,0.65138 -2.7385,0.23496 -5.493,0.18008 -8.24006,0.17292 -2.94168,-0.0446 -5.88191,0.0436 -8.81813,0.21679 -2.86304,0.188 -5.73581,0.1492 -8.60428,0.14556 -2.52942,0.004 -5.05889,-0.043 -7.58313,-0.19702 -2.67474,-0.24143 -5.34542,-0.51836 -8.02472,-0.72109 -2.92977,-0.43239 -5.89026,-0.50373 -8.83539,-0.75744 -0.51432,-0.0545 -1.03375,-0.073 -1.54297,-0.1635 -7.40771,-1.31714 -14.78687,-2.79437 -22.20375,-4.05887 -6.53886,-1.1148 26.0729,4.91555 19.56949,3.60976 -7.37247,-1.48028 -14.78597,-2.74833 -22.17693,-4.13329 -6.5593,-1.22911 13.12606,2.41843 19.68191,3.66576 0.39358,0.0749 -0.79516,-0.0986 -1.19275,-0.14796 -73.11578,-14.13136 48.66844,9.54044 -24.28086,-4.4725 -1.10247,-0.21177 -2.25554,-0.68748 -3.37195,-0.94198 52.03374,9.69431 -1.57786,-0.26402 -2.36379,-0.4125 -6.52311,-1.23242 26.08473,4.9653 19.58243,3.62735 -7.38292,-1.51916 -14.81559,-2.78574 -22.22479,-4.17107 -0.4778,-0.0893 -1.91406,-0.34144 -1.43613,-0.25289 6.5158,1.20713 13.03317,2.40577 19.54976,3.60866 -8.34654,-1.25294 -16.44822,-3.02376 -24.84667,-4.65352 -1.41958,-0.27548 -2.7642,-0.78695 -4.17344,-1.11245 -3.03338,-0.84473 -6.07034,-1.72536 -9.15484,-2.37382 -3.04966,-0.94371 -5.99719,-2.12506 -9.16216,-2.63239 -2.97497,-0.89072 -5.97133,-1.57558 -8.99446,-2.24345 -2.70821,-0.76931 -5.35569,-1.69386 -7.98576,-2.7038 -2.93537,-0.86624 -5.8728,-1.84079 -8.66017,-3.11752 -3.13712,-1.40887 -6.33742,-2.68745 -9.42261,-4.21071 -2.49644,-1.33676 -5.14741,-2.20463 -7.54834,-3.73587 -1.9778,-0.31577 -3.59059,-1.7449 -5.5168,-2.09921 -1.78472,-0.2485 -3.10536,-1.90321 -4.82718,-2.0885 -1.54924,-0.52345 -2.86481,-1.21328 -4.47788,-1.48373 -1.35581,-0.45373 -2.53814,-1.24247 -3.718,-2.03078 -0.36509,-0.25823 -0.19904,-0.13534 -0.5004,-0.36557 0,0 21.63713,1.42632 21.63713,1.42632 v 0 c 0.28389,0.1636 0.12765,0.0736 0.46868,0.26987 1.16083,0.6436 2.38319,1.13502 3.69424,1.3819 1.50241,0.51875 2.9226,1.27055 4.46578,1.69709 1.49051,0.93951 3.145,1.5067 4.81361,2.05294 1.78228,0.90664 3.70169,1.49907 5.43243,2.50648 2.45558,1.27233 5.06296,2.22208 7.49282,3.55193 3.13645,1.40262 6.26233,2.83189 9.44827,4.11941 2.86228,1.0871 5.76196,2.06741 8.67287,3.01443 2.64054,0.90485 5.26651,1.86176 8.01276,2.40953 3.01179,0.62539 5.92049,1.66416 8.9472,2.232 3.08516,0.79692 6.05755,1.96728 9.16491,2.68395 3.06227,0.79261 6.12787,1.57182 9.17513,2.42115 1.83994,0.52275 1.03594,0.30616 2.83039,0.77086 0.45674,0.11829 1.83516,0.43561 1.37052,0.35368 -34.7149,-6.12106 -24.23483,-4.04933 -16.91247,-3.18068 7.39685,1.36234 14.79619,2.71119 22.19055,4.08704 0.48621,0.0905 1.93727,0.39946 1.45053,0.31182 -6.51528,-1.17328 -26.03789,-4.81922 -19.53697,-3.56884 7.39072,1.42154 14.81501,2.66458 22.20646,4.08229 8.63425,1.65607 -66.30774,-12.22378 2.37691,0.48249 0.76703,0.19804 1.52388,0.43544 2.29429,0.61994 0.35832,0.0858 1.44779,0.27572 1.08526,0.20991 -6.61347,-1.20043 -26.4322,-4.91651 -19.83813,-3.6138 3.70456,0.73187 51.71581,9.43891 2.27162,0.45802 7.7778,1.36701 15.51645,2.96603 23.32098,4.17105 6.56408,1.01349 -26.14136,-4.73882 -19.60284,-3.57178 73.96242,13.20135 -13.85367,-2.32113 4.15831,0.77802 2.951,0.24723 5.89781,0.35838 8.84328,0.6934 2.63917,0.40872 5.33859,0.32139 7.95604,0.82178 2.5329,0.14719 5.03036,0.32827 7.57025,0.31476 2.86356,0.0289 5.70907,0.005 8.56515,-0.009 2.94911,-0.1838 5.89772,-0.3886 8.85485,-0.35751 2.73196,0.0311 5.44496,0.0109 8.16712,3e-4 2.7039,-0.20898 5.40641,-0.43583 8.10958,-0.65417 2.43533,-0.19019 4.86916,-0.39925 7.30456,-0.58861 2.27638,-0.15212 4.55278,-0.30245 6.83448,-0.34704 2.7654,-0.0377 5.4812,-0.30073 8.241,-0.30308 2.7663,-0.35678 5.6242,-0.17697 8.4002,-0.2657 2.7797,-0.16616 5.5029,0.3349 8.2777,0.0295 2.6056,0.18544 5.1762,0.20489 7.7918,0.061 2.5942,0.0635 5.1804,0.11018 7.7447,-0.28475 2.5173,-0.40691 5.0793,-0.48753 7.594,-0.92727 2.5943,-0.004 5.1597,-0.30936 7.7445,-0.1136 7.8495,1.33148 15.6444,2.9871 23.5157,4.18244 13.2347,2.0098 -71.8203,-12.61453 2.7585,0.48783 0.8445,0.14837 -57.6356,-10.49755 2.5279,0.47545 2.2835,0.58808 4.5221,1.32568 6.7363,2.13413 2.1549,0.92386 4.3842,1.65899 6.6283,2.33177 2.3065,0.60398 4.6526,1.05176 6.9278,1.77421 2.2926,0.58254 4.5255,1.37986 6.8138,1.98054 2.1546,0.63084 4.2988,1.28034 6.4364,1.95761 1.8078,0.4504 3.6062,1.08349 5.3099,1.82924 1.823,0.8309 3.6314,1.61561 5.3273,2.69787 2.0316,1.08969 3.9077,2.2639 5.4198,4.05516 2.3392,2.38746 4.5864,4.85864 6.8236,7.34172 0,0 -21.4256,-1.96103 -21.4256,-1.96103 z"
     inkscape:connector-curvature="0" />
  <path
     style="opacity:0.97000002;fill:#ff6600;fill-opacity:1;stroke:#ff6600;stroke-width:3.85511804;stroke-miterlimit:4;stroke-dasharray:none;stroke-dashoffset:6.99212599;stroke-opacity:1"
     id="path5929"
     d="m 837.66231,565.79824 c -2.82115,-1.49863 -5.76556,-2.57236 -8.77923,-3.59268 0.75581,-0.14432 -2.50883,-0.52657 -1.87918,-0.40693 6.70657,1.27425 26.8206,5.12176 20.13444,3.74442 -9.69255,-1.99665 -15.5782,-1.80874 -23.05822,-4.53514 -9.56689,-1.48828 63.21524,11.82123 -2.44964,-0.34922 -6.56188,-1.21619 26.33675,3.99639 19.66793,3.74279 -8.0686,-1.09718 -16.00533,-3.10967 -24.06876,-4.24383 -6.47001,-0.91004 25.78367,4.00393 19.26006,3.64077 -8.19865,-0.95732 -16.22908,-3.12507 -24.39601,-4.24155 -6.45704,-0.88274 25.71791,4.00114 19.21142,3.62951 -1.69513,-0.3872 -3.39206,-0.18252 -5.10993,-0.15221 -2.20452,-0.076 -4.32014,0.61248 -6.45025,1.0635 -2.38656,0.57006 -4.75544,1.24769 -7.17326,1.6675 -2.40594,0.26529 -4.8118,0.50205 -7.1977,0.91708 -2.36612,0.4417 -4.72258,0.92747 -7.06766,1.46752 -2.182,0.61289 -4.44994,0.82233 -6.64407,1.36604 -2.00447,0.49866 -4.04848,0.87235 -6.08304,1.24915 -2.34013,0.65598 -4.7876,0.63507 -7.17563,1.00342 -2.67177,0.44383 -5.34987,0.77839 -8.04007,1.09194 -2.84281,0.19686 -5.66961,0.53501 -8.49893,0.87347 -2.8873,0.39416 -5.79223,0.69219 -8.66736,1.16908 -3.11672,0.34469 -6.2278,0.6862 -9.33688,1.12046 -3.14282,0.25602 -6.2754,0.60084 -9.40869,0.95611 -2.79014,0.31158 -5.5858,0.56881 -8.383,0.80745 -2.72026,0.22481 -5.44075,0.44683 -8.16173,0.66262 -2.71198,0.0741 -5.43054,0.0706 -8.14621,0.0568 -2.6821,0.13712 -5.32175,-0.34682 -7.97685,-0.60783 -2.74464,-0.45054 -5.53054,-0.39674 -8.29344,-0.62725 -2.9445,-0.4046 -5.88235,-0.7821 -8.84928,-0.99009 -3.15644,-0.29681 -6.30446,-0.60898 -9.42948,-1.15168 -7.47076,-1.39836 -14.94152,-2.79672 -22.41228,-4.19509 -0.53563,-0.10086 -2.14278,-0.402 -1.60689,-0.30256 6.38665,1.18506 12.77537,2.35911 19.15917,3.55945 4.07124,0.76551 -3.78037,-0.56681 -4.59617,-0.65312 -3.14094,-0.32505 -6.28507,-0.62086 -9.42959,-0.9149 -8.79602,-0.91031 -17.21899,-2.85329 -26.06531,-4.4547 -0.63083,-0.1142 -2.51635,-0.4935 -1.88581,-0.37771 20.3046,3.72852 25.07879,4.3868 16.87088,3.20829 -3.70969,-0.52579 -7.43372,-0.92997 -11.14648,-1.43274 -3.97886,-0.56805 -7.99643,-0.80812 -12.0021,-1.11452 -3.72442,-0.16582 -7.43247,-0.51814 -11.16094,-0.58678 -3.84587,-0.14879 -7.69429,-0.28082 -11.53859,-0.47747 -4.04602,-0.41243 -8.09112,-0.69526 -12.155,-0.84793 -4.14904,-0.0941 -8.28189,-0.4705 -12.42477,-0.67587 -3.99958,-0.15754 -7.99843,0.0841 -11.98776,0.34741 -3.82056,0.15343 -7.6435,0.0192 -11.46663,0.10824 -3.77222,-0.008 -7.53708,-0.17902 -11.31058,-0.11333 -4.01492,0.0962 -8.00643,-0.41051 -12.00965,-0.62432 -3.81487,-0.31171 -7.64214,-0.44674 -11.45736,-0.74758 -3.63899,-0.18087 -7.27062,-0.49392 -10.90986,-0.66717 -3.72219,0.006 -7.43793,-0.0517 -11.15553,-0.24991 -3.12955,-0.13189 -6.2644,-0.20679 -9.39762,-0.27419 -3.06797,0.0718 -6.12616,-0.0992 -9.19038,-0.20815 -2.9403,-0.0235 -5.86381,-0.33172 -8.80028,-0.45391 -2.99421,-0.0707 -5.98207,-0.13397 -8.97661,-0.16038 -2.81399,-0.16921 -5.62964,-0.1456 -8.44603,-0.26391 -2.62396,-0.1044 -5.24164,-0.27936 -7.86233,-0.44368 -2.71805,0.007 -5.42583,-0.29073 -8.14173,-0.2619 -3.03505,-0.10009 -6.06961,-0.0194 -9.10187,0.11593 -3.60016,0.18382 -7.18413,0.56524 -10.79096,0.56796 -3.55857,0.0113 -7.09227,-0.42036 -10.64643,-0.5362 -3.14719,0.0363 -6.27652,-0.0127 -9.40818,-0.34333 -2.92799,0.006 -5.83112,-0.40356 -8.74859,-0.54746 -2.88664,0.0383 -5.77196,0.0376 -8.65832,0.0458 -2.71401,0.0939 -5.41952,0.28151 -8.13013,0.44508 -2.42492,0.20342 -4.8353,0.57977 -7.26533,0.7038 -2.41855,0.10653 -4.82627,-0.0685 -7.24417,0.006 -2.64607,0.0556 -5.29181,-0.0126 -7.93908,-0.009 -2.96587,-0.0266 -5.91552,0.0933 -8.8749,0.26953 -3.37832,0.11006 -6.74207,-0.19296 -10.10302,-0.48455 -10.68078,-0.72399 -20.7988,-2.98803 -31.47547,-4.92824 -3.84738,-0.91453 -7.66533,-2.10097 -11.33516,-3.57468 -4.01247,-1.29384 -7.72385,-3.32972 -11.64904,-4.8515 0,0 21.34296,0.97134 21.34296,0.97134 v 0 c 3.85446,1.66898 7.66308,3.4624 11.65856,4.77802 3.73634,1.26925 7.48657,2.54575 11.38177,3.2407 -36.13308,-6.43517 -18.70485,-2.94006 -10.18186,-2.63226 3.2979,0.5006 6.65313,0.67784 9.98487,0.74368 2.95315,0.0992 5.89007,-0.49116 8.84497,-0.27553 2.65441,-0.078 5.31392,0.0941 7.95391,-0.0704 2.39695,0.18348 4.79309,-0.12483 7.1973,0.0862 2.44069,0.002 4.80244,-0.31718 7.22944,-0.50012 2.67921,-0.48204 5.45136,-0.45054 8.16476,-0.54808 2.89092,-0.38917 5.81655,0.0546 8.72009,-0.19971 2.96165,-0.10275 5.8295,0.52897 8.79204,0.43042 3.13425,0.0816 6.24989,0.81021 9.40985,0.43214 3.56988,0.0697 7.11004,0.37434 10.66734,0.57213 3.58463,0.0974 7.13097,-0.095 10.70261,-0.44545 3.03354,-0.19286 6.07501,-0.333 9.11534,-0.26961 2.72347,0.11627 5.43894,0.0785 8.16961,0.21548 2.63374,0.0482 5.23132,0.3277 7.85293,0.4231 2.82475,0.15336 5.64018,0.11827 8.44369,0.34989 3.00278,0.0328 5.98066,0.0121 8.97658,0.13505 2.95336,0.002 5.87813,0.32282 8.81854,0.43284 3.06425,0.0938 6.11393,0.38688 9.17761,0.23593 3.16946,0.0518 6.32572,0.26405 9.49363,0.1535 3.68612,0.44495 7.42243,0.44348 11.12968,0.36592 3.65881,0.0559 7.28179,0.48795 10.93846,0.56652 3.82655,0.31325 7.65749,0.43835 11.47789,0.84395 3.99237,0.11138 7.94903,0.56888 11.93648,0.75367 3.77059,-0.14267 7.54284,-0.16472 11.3087,0.12214 3.81771,-0.15415 7.63511,-0.17947 11.45397,-0.027 4.00996,-0.29571 8.02583,-0.59199 12.0495,-0.56532 4.16408,0.0946 8.29358,0.60382 12.459,0.66116 4.05474,0.23558 8.13545,0.13186 12.15484,0.84363 3.82495,0.18398 7.65173,0.25751 11.47019,0.55965 3.75272,-0.0464 7.4679,0.25042 11.20728,0.46391 4.02712,0.21106 8.04514,0.60384 12.06056,0.95614 3.70717,0.56778 7.43333,0.90643 11.13732,1.48303 11.88425,1.1533 49.8296,9.29277 7.61149,1.28646 -1.12317,-0.213 4.4682,0.41135 3.41546,0.31047 3.10856,0.48253 6.26537,0.62951 9.39633,0.90531 1.96192,0.27594 0.95561,0.17851 3.02,0.28076 12.37488,1.57887 48.21447,9.32695 6.49689,1.23432 3.11098,0.49884 6.19425,1.13885 9.35504,1.25343 2.92916,0.4401 5.94754,0.24904 8.83295,1.04068 2.76894,0.23842 5.5278,0.3394 8.30293,0.5275 2.6018,0.42521 5.25566,0.76617 7.89099,0.84826 2.71114,0.0466 5.39975,-0.10026 8.09682,0.13269 2.72001,-0.21895 5.4407,-0.42954 8.16028,-0.65403 2.79676,-0.23093 5.59402,-0.45886 8.38549,-0.74846 3.13899,-0.33445 6.27632,-0.84961 9.43329,-0.88821 3.08698,-0.41488 6.1459,-1.08052 9.27246,-1.04561 2.88965,-0.5634 5.78973,-0.86022 8.69336,-1.30334 2.82711,-0.31633 5.65619,-0.84397 8.49913,-0.84803 2.68586,-0.37018 5.38821,-0.41525 8.01566,-1.15568 2.35074,-0.11342 4.68836,-0.67097 7.06645,-0.68939 1.93154,-0.6479 4.0475,-0.96173 6.05406,-1.20865 2.20397,-0.70792 4.44366,-1.01153 6.7123,-1.46116 2.37021,-0.54663 4.70056,-1.10972 7.09343,-1.55051 2.40015,-0.48643 4.78531,-0.92859 7.23766,-1.03383 2.41876,-0.2016 4.70652,-0.86041 7.06873,-1.41814 2.16166,-0.66063 4.38474,-1.07644 6.59806,-1.58175 1.76666,0.019 3.44985,-0.23599 5.17392,-0.10814 7.43185,1.39492 18.396,3.45701 22.74446,3.95841 6.77472,0.78118 -13.43352,-2.36071 -20.14056,-3.59464 -2.33601,-0.42977 5.04634,0.28111 2.57854,0.24596 7.44419,1.42137 17.68381,3.38139 22.70524,3.96271 6.79244,0.78636 -13.46878,-2.37034 -20.19378,-3.60732 -2.12246,-0.39039 4.70998,0.20552 2.27932,0.2097 7.49635,1.81547 10.35979,2.52374 22.3517,4.01858 6.8776,0.85732 -13.64499,-2.44184 -20.46016,-3.70274 -0.18842,-0.0349 0.38568,-0.01 0.5744,0.0236 21.50315,3.79295 14.80777,1.30979 22.33169,4.15292 0.4128,0.10859 1.66524,0.3748 1.2453,0.29834 -6.72312,-1.224 -26.87178,-5.00648 -20.1646,-3.69801 9.16755,1.78844 15.98701,1.78894 23.6091,4.66594 2.99502,1.09787 5.86209,2.46509 8.76613,3.78236 0,0 -21.48284,-1.05896 -21.48284,-1.05896 z"
     inkscape:connector-curvature="0" />
  <path
     style="opacity:0.97000002;fill:#ff6600;fill-opacity:1;stroke:#ff6600;stroke-width:3.85511804;stroke-miterlimit:4;stroke-dasharray:none;stroke-dashoffset:6.99212599;stroke-opacity:1"
     id="path5931"
     d="m 710.4059,543.04256 c -3.07002,-0.31828 -6.17051,-0.25909 -9.25151,-0.14845 -1.88949,0.0235 -3.7682,0.28784 -5.65543,0.33181 -1.51666,0.27239 -2.99362,0.70128 -4.49079,1.07967 -1.29143,0.37354 -2.66343,0.30381 -3.9986,0.36056 -1.87178,0.2922 -3.81337,0.12614 -5.71579,0.059 -13.99556,-1.82701 -50.64768,-9.20257 -7.71554,-1.18942 -9.67861,-0.49216 -18.87768,-3.55403 -28.22897,-5.55802 -1.85133,-0.69056 -3.88171,-0.86193 -5.72138,-1.54941 -1.61714,-0.42418 -3.17016,-0.61129 -4.63411,-1.51012 -1.74519,0.0629 -3.12967,-0.93747 -4.52216,-1.84516 -1.97507,-0.24618 -3.44362,-1.81107 -5.31128,-2.23372 -1.86182,-0.89206 -3.79523,-1.47633 -5.73071,-2.18339 -1.95486,-0.72014 -3.84067,-1.37354 -5.68155,-2.39716 -1.90112,-0.45939 -3.68078,-1.32703 -5.28739,-2.43144 -1.48033,-0.91907 -3.20158,-1.39709 -4.77117,-2.25478 -1.43384,-1.15835 -3.17593,-1.60675 -4.82317,-2.4468 -1.50564,-1.14004 -3.348,-1.45628 -4.99458,-2.35897 -2.03413,-0.0525 -3.55623,-1.82486 -5.48858,-1.95852 -1.31137,-0.12461 -2.24891,-1.13591 -3.40505,-1.61557 -0.62607,-0.25976 -1.29781,-0.39794 -1.92558,-0.65356 -1.7573,-1.14371 -3.61672,-1.72385 -5.57754,-2.37069 -1.76052,-0.64623 -2.94543,-2.34073 -4.72179,-2.84743 -1.77743,-0.69045 -3.42102,-1.68702 -4.94376,-2.82717 -0.89437,-0.99064 -2.01985,-1.30019 -3.18515,-1.82259 0,0 21.52162,1.1169 21.52162,1.1169 v 0 c 1.14551,0.60128 2.11965,1.40666 3.19277,2.12557 1.59712,0.95888 3.26544,1.76451 4.95022,2.55641 1.45927,1.06968 2.98164,2.07107 4.74543,2.56071 1.90981,0.69781 3.64067,1.72884 5.53698,2.46707 1.79448,0.70225 3.45721,1.71892 5.37837,2.08867 1.74827,0.96124 3.65437,1.44308 5.45878,2.27554 1.72648,0.69195 3.37803,1.46428 4.99473,2.38296 1.66034,0.77255 3.28678,1.51802 4.8473,2.47841 1.61556,0.74856 3.30658,1.31108 4.74625,2.39437 1.7269,0.85301 3.55033,1.45517 5.28162,2.29131 1.84605,0.84005 3.82781,1.32195 5.68748,2.1342 1.93726,0.69067 3.81601,1.49692 5.73079,2.24946 1.72013,0.98069 3.59392,1.59514 5.31982,2.5523 1.46261,0.73777 3.07396,0.92276 4.54274,1.61619 1.54014,0.42783 3.11821,0.66597 4.62868,1.20358 1.92109,0.37167 3.73993,1.10928 5.66524,1.4776 1.15904,0.32749 2.32241,0.5875 3.49354,0.86665 0.43857,0.10454 1.75781,0.39999 1.31389,0.32121 -6.10833,-1.08402 -27.11913,-4.94878 -18.38967,-3.34341 46.49498,8.39016 14.0072,2.54013 2.70326,0.45486 -0.44494,-0.0821 0.89794,0.11651 1.34223,0.2021 1.21319,0.23372 2.40687,0.45076 3.63583,0.60848 1.81934,0.28986 3.70437,0.18789 5.45546,0.37356 0.46506,-0.10165 0.91667,-0.32942 1.39254,-0.31674 0.20847,0.006 0.3821,0.19403 0.59017,0.20767 0.69865,0.0457 1.28938,-0.57966 1.96323,-0.0571 1.51447,-0.31495 2.99003,-0.84256 4.4923,-1.04114 1.80283,-0.79414 3.92298,-0.43739 5.84869,-0.72755 3.12501,-0.14371 6.25016,-0.14433 9.37808,-0.16866 0,0 20.33321,7.02016 20.33321,7.02016 z"
     inkscape:connector-curvature="0" />
  <path
     style="opacity:0.97000002;fill:#ff6600;fill-opacity:1;stroke:#ff6600;stroke-width:3.85511804;stroke-miterlimit:4;stroke-dasharray:none;stroke-dashoffset:6.99212599;stroke-opacity:1"
     id="path5933"
     d="m 836.73992,526.90728 c -3.42153,1.3732 -6.78194,2.92003 -10.30933,4.00786 -9.03874,2.16105 -15.26127,-1.05327 -26.06611,-3.43822 -6.72196,-1.48374 13.53347,2.52785 20.3002,3.79177 -8.6913,-0.50124 -17.8333,-0.51921 -24.81551,-5.60107 -1.55798,-0.10016 -2.83104,-0.90522 -4.11124,-1.71485 -1.2001,-1.38186 -2.78278,-1.67963 -4.34547,-2.40426 -1.0694,-0.20124 -1.77205,-1.29136 -2.72223,-1.67429 -0.46261,-0.18644 -0.99128,-0.14743 -1.46552,-0.30191 -1.47604,-0.73969 -3.00552,-1.13976 -4.55609,-1.7082 -1.54576,-0.9113 -2.88169,-0.91592 -4.57904,-1.67367 -1.90331,0.0564 -3.30499,-1.30398 -5.0579,-1.71129 -1.97523,-0.88519 -4.02229,-1.51088 -5.95852,-2.48121 -2.32906,-0.73882 -4.43439,-2.059 -6.71482,-2.91638 -2.29116,-0.94372 -4.5453,-1.92601 -6.83196,-2.89446 -2.34939,-0.73706 -4.74918,-1.41308 -7.04892,-2.3109 1.79685,0.0877 -6.96916,-1.45388 -4.82011,-1.05958 6.5452,1.20086 26.18144,4.79939 19.62971,3.63462 -7.40748,-1.31691 -14.79803,-2.72737 -22.19704,-4.09104 36.57742,4.81382 20.83198,3.53161 12.2904,3.47631 -3.04097,0.1928 -6.08357,0.3844 -9.12839,0.50109 -2.71725,0.14726 -5.42642,0.38493 -8.13767,0.61425 -2.2587,0.2271 -4.5142,0.46148 -6.70606,1.07472 -2.09657,0.40319 -4.13091,1.03587 -6.14557,1.72933 -2.14872,0.70567 -4.15439,1.76008 -6.22974,2.64438 -1.81962,0.83849 -3.55782,1.84284 -4.69041,3.52652 -0.52078,0.79801 -0.68678,1.67685 -0.62213,2.61491 0,0 -21.29639,-3.4974 -21.29639,-3.4974 v 0 c 0.0359,-1.31241 0.16881,-2.6439 0.87678,-3.78823 1.20936,-2.14707 2.82859,-3.61877 5.03491,-4.75505 2.06356,-1.01454 4.21112,-1.85334 6.27326,-2.87291 2.0779,-0.67526 4.09083,-1.46714 6.218,-1.98431 2.25932,-0.27565 4.44605,-1.35931 6.78642,-1.19249 2.72707,-0.51206 5.50221,-0.43153 8.24347,-0.82723 3.04791,-0.0475 6.08662,-0.22485 9.12096,-0.45251 1.57353,-0.16283 3.00451,-0.003 4.57243,-0.005 9.49334,-0.0138 7.37741,-3.49857 25.0298,3.76221 -6.53159,-1.18874 -26.13099,-4.72924 -19.59476,-3.56624 8.81031,1.56763 18.31042,2.49074 26.99715,5.3784 2.37431,0.73317 4.71539,1.58168 7.042,2.44792 2.27286,0.95993 4.51927,1.97364 6.80202,2.91064 2.208,1.07958 4.50799,1.90455 6.73439,2.941 2.00241,0.78325 3.98757,1.60231 6.01499,2.32084 1.64638,0.79545 3.37178,1.15448 5.08249,1.76588 1.55618,0.50641 3.0886,0.88656 4.56722,1.61572 1.54587,0.5335 3.02074,1.18772 4.56667,1.72316 1.44026,0.57736 2.64956,1.66716 4.17153,2.11478 1.60191,0.66206 2.84208,1.80555 4.36226,2.61761 1.35498,0.66299 2.886,0.9146 4.11327,1.81744 0.56493,0.29506 1.15134,0.56464 1.78274,0.68987 0.22223,0.0441 0.89794,0.11961 0.67516,0.0784 -21.40259,-3.9631 -27.01492,-5.3395 -19.63922,-3.54934 7.2355,1.31539 14.44752,2.76729 21.70651,3.94619 6.76333,1.0984 -13.46959,-2.52521 -20.21927,-3.70466 -0.29555,-0.0516 0.54809,0.25738 0.8418,0.31862 1.08604,0.22643 2.28356,0.0636 3.33428,-0.21402 3.58891,-0.44523 6.75601,-2.35713 10.14544,-3.50426 0,0 20.69316,5.83078 20.69316,5.83078 z"
     inkscape:connector-curvature="0" />
  <path
     style="opacity:0.97000002;fill:#ff6600;fill-opacity:1;stroke:#ff6600;stroke-width:3.85511804;stroke-miterlimit:4;stroke-dasharray:none;stroke-dashoffset:6.99212599;stroke-opacity:1"
     id="path5935"
     d="m 422.70196,530.48657 c -3.51601,-0.71071 -7.10468,-1.19163 -10.56735,-2.13594 6.52576,1.22207 13.05439,2.42901 19.57731,3.6662 0.3989,0.0757 -0.80499,-0.10886 -1.20446,-0.18146 -7.31286,-1.3289 -14.61493,-2.71714 -21.93195,-4.02292 -6.64359,-1.18558 26.56489,4.79233 19.91161,3.66238 -3.65926,-0.62147 -51.94322,-9.54036 -2.0966,-0.34562 -13.86697,-2.18828 -44.45593,-8.23399 -3.19779,-0.46129 0.29514,0.0556 -0.59375,-0.0921 -0.89222,-0.12561 -1.00493,-0.1128 -1.05608,-0.0845 -2.11914,-0.0957 -2.08663,0.16772 -4.17541,-0.0101 -6.26133,0.1102 -1.98592,-0.0222 -3.95353,0.25074 -5.94055,0.21632 -2.12354,-0.0157 -4.2424,-0.0607 -6.36105,-0.19658 -2.32177,-0.18845 -4.64803,-0.20696 -6.97397,-0.11019 -2.74256,0.12875 -5.4794,0.35603 -8.21656,0.56702 -3.04476,0.35404 -6.08463,0.69162 -9.10717,1.20726 -3.02312,0.5728 -6.08491,0.88092 -9.11904,1.38316 -2.9976,0.39153 -6.02323,0.46364 -9.03093,0.74157 -2.88034,0.25877 -5.73312,0.74192 -8.60759,1.04817 -2.81369,0.38444 -5.63918,0.63469 -8.45545,1.00598 -2.47537,0.24541 -4.92565,0.65016 -7.3846,1.00539 -2.35899,0.41846 -4.68032,1.02264 -7.02976,1.48045 -2.03229,0.51954 -4.06258,1.04429 -6.08007,1.61479 -1.88525,0.47738 -3.72368,1.07643 -5.566,1.69599 -1.71493,0.65318 -3.46074,1.26279 -5.23967,1.72708 -1.25283,0.45003 -2.39268,1.14299 -3.71315,1.38681 -0.96816,0.53709 -1.75412,0.90639 -2.86351,1.07251 -0.93688,0.59822 -1.81048,0.93721 -2.87095,1.25873 -0.69429,0.22071 -1.3147,0.51112 -2.0384,0.62846 -0.35875,0.0569 -0.7208,0.0927 -1.07793,0.15897 -0.47455,0.59428 0.50533,-1.35184 -0.0886,-0.54658 -0.64468,0.53854 -0.5285,1.80139 -1.48983,1.53498 -0.37271,-0.25394 -0.81617,-0.1874 -1.22721,-0.27326 -0.0678,-0.14179 -0.005,-0.29242 0.0279,-0.44396 0,0 -21.20065,-4.73404 -21.20065,-4.73404 v 0 c 0.0576,-0.22279 0.10782,-0.44769 0.25678,-0.63046 0.45113,-0.48272 1.08946,-0.71708 1.68217,-0.97598 1.4819,-0.068 -0.33328,1.86913 0.84637,0.53792 0.34372,-0.36802 0.38563,-1.74097 0.53923,-1.17291 0.36738,0.0136 0.73448,-0.0208 1.10111,-0.0435 0.69366,-0.0482 1.28137,0.10511 1.9263,-0.22972 0.38591,-0.12739 1.11159,-0.5319 1.5013,-0.51542 0.14218,0.006 0.21593,0.24771 0.3575,0.23338 0.38749,-0.0393 0.54391,-0.68359 0.95022,-0.67998 0.34144,-0.25798 1.11793,-0.84016 1.6124,-0.79269 0.14324,0.0138 0.1905,0.27558 0.33445,0.27299 0.37579,-0.007 0.54099,-0.67401 0.9397,-0.62319 1.15924,-0.75997 2.64751,-0.62913 3.79134,-1.48916 1.62995,-0.77738 3.51044,-1.10105 5.2279,-1.62452 1.76192,-0.9049 3.70884,-1.47515 5.6299,-1.92431 2.04277,-0.65796 4.09667,-1.11065 6.15188,-1.72975 2.31763,-0.6468 4.70236,-0.99873 7.0532,-1.55755 2.44179,-0.61096 4.95678,-0.84891 7.46319,-1.13402 2.82197,-0.35367 5.63043,-0.75072 8.45293,-0.98888 2.84856,-0.47253 5.73335,-0.79868 8.61594,-1.01965 2.97622,-0.60159 6.03052,-0.48699 9.04741,-0.77915 3.04511,-0.27997 6.06403,-0.94223 9.10938,-1.29499 3.05544,-0.52027 6.09065,-0.98804 9.15395,-1.39186 2.72529,-0.22816 5.45079,-0.45387 8.17868,-0.64886 2.34703,-0.13427 4.70095,-0.30608 7.05049,-0.11355 2.11589,0.12028 4.17526,0.28991 6.29199,0.27849 2.00253,0.022 3.97378,0.16984 5.94415,-0.20567 2.07585,0.16795 4.17005,-0.13512 6.25222,-0.0107 8.76223,-0.70659 14.49062,1.83716 25.10829,3.85943 6.26814,1.19384 -27.91614,-4.89715 -18.83439,-3.42023 71.98986,12.57051 -9.84278,-1.67095 2.12997,0.2424 7.35212,1.17494 14.61375,2.89925 21.98639,3.93758 6.68118,0.94095 -13.27285,-2.43433 -19.91042,-3.64521 -0.40208,-0.0733 0.80259,0.15509 1.20388,0.23264 7.39437,1.35133 14.78873,2.70265 22.18309,4.05398 3.53885,0.71798 7.0977,1.3699 10.59234,2.28028 0,0 -21.48456,-0.78656 -21.48456,-0.78656 z"
     inkscape:connector-curvature="0" />
  <path
     style="opacity:0.97000002;fill:#ff6600;fill-opacity:1;stroke:#ff6600;stroke-width:3.85511804;stroke-miterlimit:4;stroke-dasharray:none;stroke-dashoffset:6.99212599;stroke-opacity:1"
     id="path5937"
     d="m 717.70474,869.19942 c -1.5401,-2.26522 -2.89993,-4.68743 -4.65426,-6.7992 -1.13439,-1.15438 -1.29739,-1.16287 -1.58068,-2.75015 -0.0374,-0.78264 -0.4198,-1.16934 -1.06171,-1.59565 -0.19009,-1.21902 -0.8078,-2.24479 -1.58994,-3.16385 -0.19827,-0.55904 -1.16866,-0.73209 -1.36755,-1.25321 -0.16099,-0.42172 -0.12053,-0.8998 -0.26096,-1.3288 -0.1559,-0.88065 -0.57041,-1.25775 -1.16455,-1.83095 -0.10815,-0.0783 -0.26527,-0.11517 -0.32451,-0.23483 -0.15705,-0.31709 -0.18743,-1.054 -0.3085,-1.41013 -0.14248,-0.41912 -0.46373,-0.85057 -0.68329,-1.23555 -0.6606,-0.6797 -1.38766,-1.279 -2.11321,-1.8874 -0.42457,-1.29258 -1.10262,-2.4537 -1.97345,-3.48547 -0.92958,-0.90022 -1.9177,-1.73616 -2.9061,-2.57048 -0.61443,-0.3176 -1.02513,-1.1289 -1.65762,-1.405 -0.55189,-0.24081 -1.30224,-0.0993 -1.90846,-0.33304 -1.16621,-0.90826 -2.59181,-0.90464 -3.89176,-1.46783 -1.49009,-0.34286 -2.91532,-0.71163 -4.36128,-1.28663 -8.69565,-0.33667 27.38113,5.19439 19.07937,3.64418 -7.20514,-1.34544 -14.41969,-2.6415 -21.61538,-4.03663 -2.20169,-0.42687 1.34101,-0.16506 -1.20046,-0.28995 51.52656,9.56941 1.45999,0.30793 -1.38571,-0.37537 -6.67103,-1.60186 13.49078,2.50512 20.22916,3.79467 0.53678,0.10271 -1.09056,-0.0971 -1.62727,-0.20015 -7.25021,-1.39195 -14.49606,-2.80649 -21.74409,-4.20973 35.61671,6.66128 24.35667,3.99074 16.47882,3.43766 -1.8052,-0.33519 -3.64512,-0.15246 -5.45643,-0.35741 -8.80318,-0.93531 -17.41158,-3.16864 -26.12599,-4.70494 -6.94668,-3.2495 -0.97107,-0.38133 19.52402,3.49369 0.43839,0.0829 -0.89403,-0.0396 -1.33323,-0.11804 -20.93398,-3.73955 -14.68042,-1.67021 -22.10156,-4.15659 0.57872,-0.62314 -1.43539,-0.33683 -1.07339,-0.26691 6.82431,1.31807 27.3946,4.72089 20.51582,3.7254 -3.41966,-0.49488 -52.84814,-9.82457 -1.85516,-0.28521 -6.2737,-1.3479 -52.57155,-9.85145 -3.99281,-0.90064 -0.18383,-0.0323 -0.36761,-0.0646 -0.55141,-0.0969 0,0 -20.44356,-7.05513 -20.44356,-7.05513 v 0 c 0.19646,0.012 0.39292,0.024 0.58938,0.0361 7.22058,1.31512 14.44959,2.58479 21.66175,3.94538 0.428,0.0807 0.81356,0.31926 1.23725,0.42021 8.46848,2.01763 -27.60425,-4.24722 -18.89104,-3.48949 7.23302,1.34188 14.46473,2.69081 21.69906,4.02565 0.17717,0.0327 0.71227,0.10871 0.53496,0.0769 -6.82061,-1.2251 -27.33132,-4.59342 -20.46516,-3.65669 7.23731,0.98738 14.40045,2.46171 21.57952,3.80872 0.2165,0.0406 0.37538,0.23061 0.56308,0.34592 0.17317,0.0161 0.34635,0.0321 0.51952,0.0481 6.91573,1.18899 16.82944,2.89517 -19.92583,-3.65088 -0.21936,-0.0391 0.41257,0.18657 0.63393,0.21206 0.2324,0.0267 0.46903,-0.0994 0.69937,-0.0585 27.47954,4.87605 14.25524,2.96292 22.46301,4.14402 12.46,2.54779 -27.21661,-4.38838 -15.83073,-2.86938 1.81109,0.21384 3.5683,0.41745 5.4114,0.33235 0.50192,0.0855 0.99606,0.26252 1.50521,0.25973 0.27074,-0.001 0.52897,-0.15867 0.79932,-0.14414 0.23916,0.0128 0.44562,0.19038 0.68279,0.22374 0.24716,0.0348 0.49896,-0.015 0.74844,-0.0225 7.2573,1.35936 14.5146,2.71873 21.7719,4.0781 -6.73181,-1.24576 -13.46244,-2.49801 -20.19545,-3.73728 -0.52935,-0.0974 1.05035,0.23704 1.57978,0.33406 7.25537,1.32964 14.47018,2.90937 21.77034,3.96585 0.46938,0.0679 -56.90358,-10.50555 1.39827,0.2631 0.39346,0.15464 1.62821,0.44843 1.21228,0.37274 -48.40936,-8.80804 -4.07204,-1.19823 2.52758,0.57138 1.44231,0.44608 2.94576,0.63355 4.3351,1.25483 1.38153,0.33879 2.52927,1.1327 3.90943,1.48533 1.43862,0.4445 2.36702,1.64267 3.51672,2.56538 1.03843,0.93683 2.09146,1.88031 2.87982,3.04717 0.64361,1.00043 1.06404,2.31472 2.00989,3.03902 0.82283,0.78501 1.59647,1.62994 2.05948,2.68468 0.41096,0.90457 0.60681,1.81277 1.38074,2.43514 0.50775,0.78354 0.75273,1.65611 1.06178,2.53068 0.26745,0.65233 1.38154,1.06549 1.6851,2.00659 0.57028,0.93995 0.89122,2.18877 1.62832,2.9486 0.49423,0.80762 0.8088,1.62222 0.95415,2.56225 0.28519,0.6187 1.36266,1.11759 1.59782,1.94652 1.54102,2.29241 2.96361,4.66458 4.57964,6.90708 0,0 -21.39066,-2.25244 -21.39066,-2.25244 z"
     inkscape:connector-curvature="0" />
  <path
     style="opacity:0.97000002;fill:#ff6600;fill-opacity:1;stroke:#ff6600;stroke-width:3.85511804;stroke-miterlimit:4;stroke-dasharray:none;stroke-dashoffset:6.99212599;stroke-opacity:1"
     id="path5939"
     d="m 671.79638,809.17983 c -1.59827,-2.55426 -3.31362,-5.05044 -5.30496,-7.31615 -0.96495,-1.48201 -2.58217,-1.43446 -4.02606,-2.19517 -0.25175,0.0129 -0.50443,0.0641 -0.75524,0.0388 -0.79965,-0.0806 -1.59146,-0.39654 -2.30092,-0.74531 -0.22429,-0.11023 -0.91913,-0.37492 -0.67338,-0.32958 6.78762,1.25245 13.55018,2.63716 20.32527,3.95573 -7.23307,-1.32805 -14.46614,-2.6561 -21.69921,-3.98415 -0.21711,-0.0448 -0.86945,-0.17436 -0.65135,-0.13454 6.74267,1.2312 13.48613,2.45823 20.22526,3.7087 0.24548,0.0456 -0.49732,-0.0501 -0.74316,-0.0937 -7.26784,-1.28967 -14.48378,-2.90461 -21.79692,-3.90598 -6.77963,-0.92831 13.46329,2.45774 20.19494,3.68662 -14.10225,-1.68708 -48.01974,-8.41339 -5.13083,-0.57616 -1.83349,-0.19291 -3.65385,-0.27341 -5.48742,-0.0401 -1.83451,0.1937 -3.62482,0.62705 -5.43748,0.92054 -1.71435,0.35956 -3.36788,0.96434 -5.07213,1.3416 -1.68218,0.44348 -3.32491,1.05144 -5.0191,1.43242 -2.05316,0.50159 -4.14646,0.87975 -6.22745,1.27527 -2.05373,0.43077 -4.10558,0.80861 -6.15148,1.28763 -2.20346,0.43301 -4.39317,0.90838 -6.62833,1.13841 -2.3143,0.26462 -4.63652,0.21918 -6.95766,0.26014 -2.30155,0.0141 -4.60314,-0.0491 -6.90616,-0.0993 -8.44248,-0.83519 -16.91049,-2.74602 -25.11727,-4.33741 -1.24542,-0.60596 -0.60328,-0.42297 -1.91772,-0.57848 -1.71434,-0.66515 -3.40633,-0.96335 -5.16871,-1.43022 -0.25626,-0.12865 -0.49008,-0.31884 -0.7689,-0.38584 -0.25878,-0.0622 -0.53225,0.006 -0.79837,0.009 -0.27732,-0.0716 -0.55453,-0.14365 -0.83198,-0.2148 -0.25522,-0.0654 -1.02517,-0.24261 -0.76602,-0.19503 23.34337,4.28519 26.70393,4.83409 19.28931,3.6104 -1.03089,-15.87582 -16.20298,-0.84793 -23.18432,-4.47302 -0.75144,-0.39019 -0.79408,-0.85649 -1.65975,-0.57549 0.92675,0.66651 -3.44694,-0.96479 -2.17395,-0.73574 6.82641,1.22826 27.36419,4.14642 20.43115,3.94263 -7.34604,-0.21592 -14.45701,-2.653 -21.68553,-3.9795 36.74324,5.45468 22.83283,4.0385 14.63439,3.08143 -2.57408,-0.31121 -5.18043,-0.10292 -7.76613,-0.0147 -2.59074,0.12823 -5.18352,0.0779 -7.77354,-0.0295 -2.1235,-0.0611 -4.27657,-0.24041 -6.37973,0.11794 -1.62518,0.11543 -3.22421,0.29365 -4.84099,0.45019 -1.13375,0.12286 -2.15149,0.51671 -3.1372,1.0659 0,0 -20.88653,-5.66554 -20.88653,-5.66554 v 0 c 1.06361,-0.72807 2.16859,-1.49579 3.43245,-1.80391 1.59501,-0.45759 3.22601,-0.66454 4.90077,-0.62972 2.4612,-0.0892 -0.70244,0.10387 1.95461,-0.33946 1.49215,-0.249 3.06491,0.0265 4.56535,-0.0762 2.5885,0.13796 5.15837,0.29278 7.74168,0.20457 2.62104,-0.0916 5.24018,-0.18937 7.84279,-0.29369 9.22419,1.01223 18.01957,1.85838 27.31142,4.49784 -42.4118,-7.73999 -10.52474,-1.99183 3.45205,0.81592 0.86642,0.69066 1.89283,0.84313 2.96917,1.03737 -6.7163,-1.21353 -13.43259,-2.42705 -20.14888,-3.64058 8.74785,0.635 17.43284,2.58023 25.85333,4.89564 1.73112,0.41751 3.38864,1.02582 5.13975,1.38298 0.62592,0.21534 2.57038,0.62787 1.91882,0.51123 -35.126,-6.28811 -24.44713,-4.1313 -16.78987,-3.19546 2.23544,0.37211 4.61217,0.30131 6.86153,0.19834 2.28096,0.23599 4.58071,0.10511 6.87723,-0.0172 2.23408,-0.11528 4.35376,-0.4006 6.53366,-0.87976 2.06308,-0.37262 4.02606,-1.13075 6.13721,-1.17797 1.96894,-0.64923 4.12588,-0.99986 6.16652,-1.23646 1.64267,-0.57536 3.35764,-0.85013 5.02013,-1.43501 1.66657,-0.58464 3.40444,-0.87202 5.10325,-1.42735 1.78229,-0.56752 3.63734,-0.80238 5.49783,-1.10096 1.86741,-0.32405 3.74018,-0.74827 5.61455,-0.39869 69.93695,12.11501 -16.28428,-2.63506 5.11803,0.58921 44.01887,7.61416 14.78874,2.59716 1.60806,0.16942 -0.25323,-0.0466 0.51838,-0.0198 0.77209,0.0241 7.26997,1.25971 14.52767,2.58921 21.7912,3.88556 0.214,0.0382 0.85519,0.15722 0.64137,0.11803 -6.76179,-1.2395 -13.52353,-2.47929 -20.28529,-3.71893 7.65507,1.47942 17.36247,2.50476 25.35911,5.31564 1.66848,0.66204 2.88786,1.663 3.89893,3.16831 1.84975,2.43844 3.52333,5.00097 5.25737,7.52138 0,0 -21.39066,-2.25244 -21.39066,-2.25244 z"
     inkscape:connector-curvature="0" />
  <flowRoot
     xml:space="preserve"
     id="flowRoot5966"
     style="font-style:normal;font-weight:normal;font-size:40px;line-height:1.25;font-family:sans-serif;letter-spacing:0px;word-spacing:0px;fill:#000000;fill-opacity:1;stroke:none"
     transform="translate(0,-108.33333)"><flowRegion
       id="flowRegion5968"><rect
         id="rect5970"
         width="320.08371"
         height="44.898617"
         x="534.43842"
         y="444.53647" /></flowRegion><flowPara
       id="flowPara5972" /></flowRoot>  <rect
     style="opacity:0.97000002;fill:#4d4d4d;fill-opacity:1;stroke:none;stroke-width:3.03440475;stroke-miterlimit:4;stroke-dasharray:none;stroke-dashoffset:6.99212599;stroke-opacity:1"
     id="rect5976"
     width="657.61163"
     height="19.931446"
     x="87.151154"
     y="72.607231"
     transform="matrix(0.99653945,-0.08312113,0.11395245,0.9934862,0,0)" />
  <rect
     style="opacity:0.97000002;fill:#ff6600;fill-opacity:1;stroke:#ff6600;stroke-width:3.85511804;stroke-miterlimit:4;stroke-dasharray:none;stroke-dashoffset:6.99212599;stroke-opacity:1"
     id="rect5974"
     width="1385.4597"
     height="49.734451"
     x="73.417519"
     y="66.731598" />
  <rect
     style="opacity:0.97000002;fill:#4d4d4d;fill-opacity:1;stroke:none;stroke-width:3.85511804;stroke-miterlimit:4;stroke-dasharray:none;stroke-dashoffset:6.99212599;stroke-opacity:1"
     id="rect5976-6"
     width="26.05138"
     height="902.32501"
     x="1432.8258"
     y="116.46605" />
  <rect
     style="opacity:0.97000002;fill:#4d4d4d;fill-opacity:1;stroke:none;stroke-width:4.77920294;stroke-miterlimit:4;stroke-dasharray:none;stroke-dashoffset:6.99212599;stroke-opacity:1"
     id="rect5976-7"
     width="134.9935"
     height="267.61868"
     x="15.394018"
     y="1015.2387" />
  <rect
     style="opacity:0.97000002;fill:#4d4d4d;fill-opacity:1;stroke:none;stroke-width:4.77920294;stroke-miterlimit:4;stroke-dasharray:none;stroke-dashoffset:6.99212599;stroke-opacity:1"
     id="rect5976-7-5"
     width="134.9935"
     height="267.61868"
     x="1374.8022"
     y="1015.2386" />
  <rect
     style="opacity:0.97000002;fill:#4d4d4d;fill-opacity:1;stroke:none;stroke-width:3.85511804;stroke-miterlimit:4;stroke-dasharray:none;stroke-dashoffset:6.99212599;stroke-opacity:1"
     id="rect5976-6-5"
     width="26.05138"
     height="902.32501"
     x="73.417519"
     y="116.46605" />
  <text
     xml:space="preserve"
     style="font-style:normal;font-weight:normal;font-size:192px;line-height:1.25;font-family:sans-serif;letter-spacing:0px;word-spacing:0px;fill:#ff6600;fill-opacity:1;stroke:none;"
     x="119.44444"
     y="1433.3334"
     id="text6121"><tspan
       sodipodi:role="line"
       id="tspan6119"
       x="119.44444"
       y="1433.3334">JupyterPiDAQ</tspan></text>
  <text
     xml:space="preserve"
     style="font-style:normal;font-weight:normal;font-size:293.33334351px;line-height:1.25;font-family:sans-serif;letter-spacing:0px;word-spacing:0px;fill:#ff6600;fill-opacity:1;stroke:none"
     x="494.44446"
     y="411.11108"
     id="text844"><tspan
       sodipodi:role="line"
       id="tspan842"
       x="494.44446"
       y="411.11108">JPSL</tspan></text>
</svg>
